<svg width="34" height="34" viewBox="0 0 34 34" fill="none" xmlns="http://www.w3.org/2000/svg">
<g filter="url(#filter0_b_3:297)">
<circle cx="16.665" cy="16.665" r="16.665" fill="white" fill-opacity="0.5"/>
</g>
<path d="M11.2133 15.946C11.6066 15.743 12.0607 15.6919 12.4892 15.8026C12.9177 15.9133 13.2904 16.1779 13.5361 16.546C14.3551 17.553 15.2433 18.504 16.0503 19.52C16.29 19.8343 16.4311 20.2126 16.456 20.6071C16.509 21.7071 16.4781 22.815 16.4741 23.92C16.5007 24.1106 16.4831 24.3048 16.4223 24.4873C16.3615 24.6699 16.2595 24.8358 16.124 24.9724C15.9885 25.109 15.8231 25.2125 15.6411 25.2747C15.459 25.3369 15.2649 25.3562 15.0742 25.3311C14.3572 25.3311 13.6403 25.3371 12.9233 25.3311C12.751 25.3422 12.5782 25.3167 12.4165 25.2562C12.2547 25.1958 12.1076 25.1017 11.9848 24.9803C11.862 24.859 11.7664 24.7129 11.7041 24.5519C11.6418 24.3908 11.6139 24.2185 11.623 24.046C11.6047 23.7856 11.5142 23.5355 11.3613 23.324C10.3933 22.055 9.38728 20.815 8.42428 19.542C8.19939 19.2683 8.06035 18.9344 8.02438 18.582C7.98938 16.523 7.99815 14.4631 8.01315 12.4031C8.00587 12.0931 8.0957 11.7886 8.26998 11.5322C8.44426 11.2758 8.69445 11.0803 8.98531 10.973C9.25877 10.8461 9.56344 10.8032 9.86129 10.8499C10.1591 10.8965 10.4366 11.0305 10.6582 11.235C10.8412 11.3898 10.9861 11.5845 11.082 11.8042C11.1779 12.0239 11.2223 12.2627 11.2114 12.5021C11.2084 13.6221 11.2133 14.739 11.2133 15.946ZM8.79635 15.467C8.79635 16.422 8.77607 17.378 8.80807 18.332C8.8211 18.608 8.91429 18.8741 9.07613 19.098C10.0321 20.357 11.0101 21.598 11.9931 22.837C12.2874 23.1596 12.4476 23.5825 12.4404 24.019C12.4234 24.374 12.5922 24.543 12.9472 24.542C13.6782 24.542 14.4101 24.542 15.1411 24.542C15.4831 24.542 15.6602 24.395 15.6572 24.026C15.6452 22.892 15.6571 21.757 15.6411 20.626C15.6358 20.4215 15.5661 20.2241 15.4414 20.062C14.5414 18.989 13.6182 17.93 12.6972 16.874C12.6312 16.7831 12.5467 16.7072 12.4492 16.6514C12.3516 16.5956 12.2432 16.5611 12.1313 16.5503C12.0195 16.5395 11.9067 16.5527 11.8003 16.5889C11.6939 16.625 11.5963 16.6833 11.5141 16.76C11.4322 16.8314 11.366 16.9191 11.3198 17.0175C11.2736 17.1158 11.2487 17.2227 11.2461 17.3313C11.2434 17.4399 11.2633 17.548 11.3047 17.6484C11.346 17.7489 11.4079 17.8398 11.4863 17.915C11.8283 18.33 12.1763 18.739 12.5263 19.147C12.7063 19.357 12.7651 19.5731 12.5361 19.7731C12.3071 19.9731 12.0943 19.857 11.9233 19.656C11.6063 19.28 11.308 18.885 10.978 18.522C10.6297 18.1471 10.4445 17.6495 10.4624 17.1381C10.4624 15.6311 10.4423 14.124 10.4233 12.616C10.4163 12.016 10.0952 11.632 9.6152 11.629C9.1352 11.626 8.79542 12.029 8.79342 12.65C8.79409 13.5887 8.79502 14.528 8.79635 15.468V15.467Z" fill="white"/>
<path d="M22.9345 15.946C22.9345 14.706 22.9255 13.559 22.9345 12.411C22.9412 12.0436 23.0747 11.6897 23.3124 11.4093C23.5501 11.129 23.8772 10.9394 24.2387 10.8727C24.6001 10.806 24.9737 10.8663 25.2958 11.0432C25.6179 11.2202 25.8687 11.5032 26.0062 11.844C26.0882 12.0683 26.1299 12.3052 26.1293 12.544C26.1403 14.529 26.1546 16.515 26.1176 18.5C26.0902 18.882 25.9507 19.2476 25.7172 19.5511C24.7602 20.8281 23.7506 22.065 22.7836 23.335C22.6249 23.5604 22.5312 23.825 22.5126 24.1C22.5147 24.2646 22.483 24.428 22.4203 24.5802C22.3576 24.7325 22.2648 24.8705 22.1473 24.9859C22.0299 25.1013 21.8905 25.1916 21.7372 25.2516C21.5839 25.3116 21.4198 25.34 21.2553 25.335C20.4779 25.345 19.7012 25.345 18.9252 25.335C18.76 25.3425 18.5951 25.3158 18.4408 25.2566C18.2865 25.1974 18.1459 25.1069 18.0282 24.9909C17.9105 24.8748 17.8182 24.7357 17.7567 24.5822C17.6953 24.4287 17.6661 24.2643 17.6713 24.099C17.6503 22.89 17.6445 21.68 17.6805 20.472C17.6987 20.1611 17.8123 19.8636 18.0062 19.62C18.9296 18.4867 19.8751 17.3717 20.8431 16.2751C21.1031 15.9919 21.4517 15.8051 21.8314 15.7454C22.2112 15.6856 22.6001 15.7563 22.9345 15.946ZM25.3505 15.517C25.3505 14.532 25.3784 13.546 25.3314 12.563C25.308 12.2602 25.1677 11.9783 24.9403 11.777C24.4183 11.377 23.7405 11.7981 23.7225 12.5201C23.6905 14.0871 23.6964 15.655 23.6464 17.22C23.637 17.5892 23.531 17.9495 23.3392 18.265C22.9836 18.7622 22.5984 19.2374 22.1854 19.688C22.1543 19.7398 22.1116 19.7838 22.0609 19.8168C22.0103 19.8498 21.9529 19.8708 21.8929 19.8785C21.833 19.8861 21.772 19.8801 21.7147 19.8608C21.6575 19.8414 21.6055 19.8094 21.5624 19.767C21.3544 19.579 21.4243 19.367 21.5883 19.175C21.9156 18.7883 22.2425 18.4007 22.5692 18.012C22.6638 17.9321 22.7398 17.8325 22.7919 17.7202C22.844 17.608 22.871 17.4857 22.871 17.362C22.871 17.2382 22.844 17.116 22.7919 17.0037C22.7398 16.8914 22.6638 16.7918 22.5692 16.7119C22.2002 16.4119 21.7482 16.481 21.3602 16.927C20.4692 17.951 19.5795 18.976 18.7015 20.012C18.5768 20.1551 18.5002 20.3339 18.4833 20.523C18.4643 21.687 18.4755 22.851 18.4725 24.015C18.4618 24.086 18.4678 24.1585 18.4901 24.2267C18.5125 24.295 18.5503 24.357 18.601 24.4079C18.6516 24.4587 18.7135 24.497 18.7816 24.5196C18.8498 24.5422 18.9225 24.5485 18.9935 24.538C19.7255 24.538 20.4562 24.538 21.1932 24.538C21.5442 24.538 21.7254 24.382 21.7094 24.023C21.7015 23.5867 21.8598 23.1638 22.1522 22.84C23.1432 21.589 24.1272 20.3319 25.0912 19.0609C25.2436 18.8485 25.3308 18.5962 25.3422 18.335C25.3712 17.399 25.3505 16.458 25.3505 15.518V15.517Z" fill="white"/>
<path d="M18.9024 9.0489C18.8756 8.84178 18.8799 8.63192 18.9146 8.42598C18.9736 8.27198 19.1526 8.03793 19.2486 8.05293C19.3407 8.07258 19.4267 8.114 19.4995 8.17366C19.5724 8.23332 19.6301 8.30953 19.6675 8.39595C19.7335 8.69595 19.6676 9.02193 19.7066 9.32893C19.7397 9.52036 19.8305 9.69697 19.9673 9.83492C20.2063 10.0367 20.4553 10.2263 20.7134 10.4029C20.9511 10.5627 21.1304 10.7954 21.2242 11.066C21.318 11.3366 21.3212 11.6303 21.2334 11.9029C21.1411 12.1733 20.9623 12.4058 20.7246 12.5643C20.4869 12.7228 20.2036 12.7986 19.9185 12.78C19.8615 12.78 19.8053 12.786 19.7183 12.79V14.473C19.962 14.4481 20.2077 14.4532 20.4502 14.488C20.6122 14.53 20.7394 14.712 20.8824 14.832C20.7571 14.9878 20.6172 15.1311 20.4644 15.26C20.3844 15.317 20.2323 15.274 20.1123 15.274C18.0677 15.274 16.0229 15.274 13.9776 15.274C13.8165 15.2952 13.6526 15.2723 13.5034 15.208C13.4376 15.1587 13.3833 15.0955 13.3448 15.0229C13.3062 14.9503 13.2842 14.87 13.2803 14.7879C13.2803 14.6799 13.4702 14.517 13.5972 14.494C13.8696 14.466 14.1443 14.4613 14.4175 14.4799V12.873C14.0628 12.7993 13.7177 12.6838 13.3902 12.529C13.2209 12.4172 13.0819 12.2657 12.9844 12.0877C12.8869 11.9098 12.8342 11.7108 12.8311 11.5079C12.8279 11.305 12.8739 11.1045 12.9659 10.9237C13.0578 10.7428 13.1927 10.587 13.3584 10.4699C14.3474 9.70293 15.3634 8.96992 16.3804 8.23592C16.5918 8.07712 16.8505 7.99415 17.1148 8.00032C17.3791 8.00649 17.6337 8.10149 17.8374 8.26997C18.0084 8.38897 18.1704 8.52097 18.3374 8.64497C18.5044 8.76897 18.6544 8.8689 18.9024 9.0489ZM18.9024 14.4489C18.9024 13.7489 18.9025 13.0799 18.8965 12.4129C18.8944 12.37 18.8838 12.3279 18.8653 12.2891C18.8467 12.2503 18.8207 12.2156 18.7886 12.187C18.2216 11.763 17.6453 11.348 17.0733 10.931C16.4973 11.353 15.9535 11.7449 15.4185 12.1469C15.3355 12.204 15.2779 12.2912 15.2583 12.39C15.2453 13.07 15.2525 13.7499 15.2525 14.4489H18.9024ZM20.5874 11.4859C20.4764 11.3165 20.3467 11.16 20.2012 11.019C19.2842 10.329 18.3532 9.65602 17.4312 8.97102C17.3305 8.88133 17.1998 8.83293 17.065 8.83553C16.9302 8.83812 16.8017 8.89144 16.7046 8.98494C15.7966 9.66294 14.8783 10.3269 13.9673 11.0019C13.7143 11.1899 13.4973 11.4269 13.7393 11.7509C13.9813 12.0749 14.2592 12.019 14.5552 11.796C15.2222 11.296 15.9155 10.824 16.5635 10.296C16.629 10.2262 16.7081 10.1705 16.7959 10.1325C16.8837 10.0945 16.9781 10.0749 17.0738 10.0749C17.1694 10.0749 17.2643 10.0945 17.3521 10.1325C17.4399 10.1705 17.519 10.2262 17.5845 10.296C18.2615 10.834 18.9604 11.3439 19.6724 11.8349C19.7575 11.8842 19.8517 11.9161 19.9492 11.9287C20.0468 11.9412 20.1455 11.9341 20.2403 11.9079C20.3713 11.8749 20.4515 11.6619 20.5845 11.4849L20.5874 11.4859Z" fill="white"/>
<defs>
<filter id="filter0_b_3:297" x="-10" y="-10" width="53.33" height="53.33" filterUnits="userSpaceOnUse" color-interpolation-filters="sRGB">
<feFlood flood-opacity="0" result="BackgroundImageFix"/>
<feGaussianBlur in="BackgroundImage" stdDeviation="5"/>
<feComposite in2="SourceAlpha" operator="in" result="effect1_backgroundBlur_3:297"/>
<feBlend mode="normal" in="SourceGraphic" in2="effect1_backgroundBlur_3:297" result="shape"/>
</filter>
</defs>
</svg>
