<svg width="27" height="31" viewBox="0 0 27 31" fill="none" xmlns="http://www.w3.org/2000/svg">
<path d="M7.64992 30.849C5.59392 26.571 6.68892 24.12 8.26892 21.81C9.31085 20.2858 10.0499 18.5754 10.4459 16.772C10.8784 17.4347 11.1735 18.1774 11.3136 18.9563C11.4538 19.7351 11.4362 20.5341 11.2619 21.306C12.2306 20.1175 12.9505 18.7464 13.3789 17.2742C13.8074 15.802 13.9356 14.2587 13.7559 12.736C19.1879 16.536 21.5099 24.752 18.3809 30.843C35.0209 21.428 22.5199 7.343 20.3439 5.753C21.0689 7.34 21.2069 10.026 19.7439 11.33C17.2599 1.928 11.1259 0 11.1259 0C11.8509 4.852 8.49592 10.157 5.26092 14.121C5.28654 12.3352 4.85558 10.5725 4.00892 9C3.78092 12.514 1.09492 15.379 0.367918 18.9C-0.618082 23.672 1.10892 27.16 7.64992 30.849Z" fill="white"/>
</svg>
