<svg width="17" height="17" viewBox="0 0 17 17" fill="none" xmlns="http://www.w3.org/2000/svg">
<path d="M7.99966 16.127C6.14883 16.1262 4.35549 15.4837 2.92526 14.309C1.49503 13.1342 0.516382 11.4999 0.156035 9.68451C-0.204312 7.8691 0.0759369 5.98491 0.949064 4.35297C1.82219 2.72103 3.2342 1.44229 4.94443 0.734686C6.65465 0.0270796 8.55729 -0.0656042 10.3282 0.472357C12.0991 1.01032 13.6288 2.14563 14.6565 3.68494C15.6841 5.22425 16.1463 7.07228 15.9641 8.91413C15.782 10.756 14.9669 12.4777 13.6577 13.786C12.9145 14.5286 12.0323 15.1175 11.0615 15.5192C10.0907 15.9208 9.05028 16.1274 7.99966 16.127ZM1.59964 8.26594C1.61787 9.95725 2.30489 11.5726 3.51053 12.7589C4.71617 13.9452 6.3424 14.606 8.03378 14.5969C9.72517 14.5878 11.3442 13.9094 12.537 12.7102C13.7297 11.511 14.3993 9.88838 14.3993 8.19697C14.3993 6.50556 13.7297 4.88289 12.537 3.68366C11.3442 2.48443 9.72517 1.80618 8.03378 1.79706C6.3424 1.78795 4.71617 2.44872 3.51053 3.63502C2.30489 4.82131 1.61787 6.43663 1.59964 8.12794V8.26594ZM5.92569 11.3279L4.79965 10.2L6.87063 8.12794L4.79965 6.05695L5.92764 4.92896L7.99966 6.99994L10.0717 4.92792L11.1986 6.05597L9.12765 8.12696L11.1997 10.2L10.0727 11.3279L7.99966 9.25593L5.92868 11.3279H5.92569Z" fill="white"/>
</svg>
