<svg width="20" height="16" viewBox="0 0 20 16" fill="none" xmlns="http://www.w3.org/2000/svg">
<path d="M11 7.25C12.7949 7.25 14.25 5.79493 14.25 4C14.25 2.20507 12.7949 0.75 11 0.75C9.20507 0.75 7.75 2.20507 7.75 4C7.75 5.79493 9.20507 7.25 11 7.25Z" stroke="white" stroke-width="1.5"/>
<path d="M0 4.25H8" stroke="white" stroke-width="1.5"/>
<path d="M16 4.25H20" stroke="white" stroke-width="1.5"/>
<path d="M7 8.75C5.20507 8.75 3.75 10.2051 3.75 12C3.75 13.7949 5.20507 15.25 7 15.25C8.79493 15.25 10.25 13.7949 10.25 12C10.25 10.2051 8.79493 8.75 7 8.75Z" stroke="white" stroke-width="1.5"/>
<path d="M20 11.75H12" stroke="white" stroke-width="1.5"/>
<path d="M4 11.75H0" stroke="white" stroke-width="1.5"/>
</svg>
