<svg width="20" height="20" viewBox="0 0 20 20" fill="none" xmlns="http://www.w3.org/2000/svg">
<path d="M12.99 0.971008L15.29 3.27101L12.399 6.14901L13.822 7.57101L16.697 4.67601L18.997 6.97601V0.971008H12.99ZM0.971008 6.98101L3.27101 4.68101L6.14901 7.57101L7.57101 6.14901L4.67701 3.27101L6.97701 0.971008H0.971008V6.98101ZM6.98101 19L4.68101 16.7L7.57101 13.822L6.14901 12.399L3.27101 15.294L0.971008 12.994V19.004L6.98101 19ZM19 12.99L16.7 15.29L13.825 12.395L12.403 13.817L15.298 16.692L12.998 18.992H19.008L19 12.99Z" fill="white"/>
</svg>
