<svg width="30" height="30" viewBox="0 0 30 30" fill="none" xmlns="http://www.w3.org/2000/svg">
<path d="M5.11279 25.9438C5.43179 25.8108 5.71309 25.711 5.91309 25.644C7.1196 25.342 8.34232 25.1081 9.5752 24.9438C10.1991 24.833 10.784 24.5647 11.2749 24.1641C11.5569 23.8271 11.3882 20.6982 11.3882 20.6982C11.0792 20.2136 10.8113 19.7034 10.5879 19.1738C10.3294 18.3003 10.1321 17.4097 9.99707 16.5088C9.99707 16.5088 9.4138 16.5091 9.2168 15.4971C8.94852 14.7357 8.77358 13.9446 8.6958 13.1411C8.7378 12.3321 9.18115 12.355 9.18115 12.355C8.85465 11.1806 8.6962 9.96591 8.71094 8.74707C8.64794 5.85707 10.8621 3.00977 15.0171 3.00977C19.1171 3.00977 21.3799 5.85707 21.3169 8.74707C21.3361 9.96671 21.175 11.1824 20.8389 12.355C20.8389 12.355 21.2822 12.3321 21.3242 13.1411C21.2469 13.9447 21.072 14.7358 20.8032 15.4971C20.6032 16.5091 20.0229 16.5088 20.0229 16.5088C19.8884 17.4097 19.6914 18.3003 19.4331 19.1738C19.2096 19.7033 18.9417 20.2135 18.6328 20.6982C18.6328 20.6982 18.4651 23.8271 18.7461 24.1641C19.2355 24.5641 19.8187 24.8324 20.4409 24.9438C21.6738 25.108 22.8965 25.3419 24.103 25.644C24.303 25.715 24.5808 25.8148 24.9028 25.9438C22.1939 28.3951 18.6695 29.7501 15.0161 29.7441C11.3572 29.7541 7.82584 28.3988 5.11279 25.9438Z" fill="white"/>
<path d="M15 29.75C23.1462 29.75 29.75 23.1462 29.75 15C29.75 6.8538 23.1462 0.25 15 0.25C6.8538 0.25 0.25 6.8538 0.25 15C0.25 23.1462 6.8538 29.75 15 29.75Z" stroke="white" stroke-width="0.5"/>
</svg>
