<svg width="10" height="13" viewBox="0 0 10 13" fill="none" xmlns="http://www.w3.org/2000/svg">
<path d="M4.94499 7.08398C2.74499 7.08398 0.869995 7.47098 0.869995 9.01798C0.869995 10.565 2.73499 10.965 4.94499 10.965C7.15499 10.965 9.02 10.577 9.02 9.03498C9.02 7.49298 7.15399 7.08398 4.94499 7.08398Z" fill="white"/>
<path opacity="0.4" d="M4.95498 6.11703C5.49339 6.12397 6.02171 5.97066 6.47277 5.67658C6.92383 5.38251 7.27726 4.96095 7.48813 4.4655C7.699 3.97005 7.75778 3.42308 7.65701 2.89414C7.55624 2.3652 7.30046 1.87816 6.92219 1.49496C6.54392 1.11175 6.06024 0.849672 5.53265 0.742045C5.00506 0.634418 4.45739 0.686101 3.95924 0.890524C3.4611 1.09495 3.03499 1.44288 2.73508 1.89009C2.43518 2.33729 2.27502 2.86358 2.27498 3.40203C2.27141 3.75662 2.33805 4.10841 2.47104 4.43713C2.60403 4.76585 2.80074 5.06501 3.04985 5.31738C3.29896 5.56974 3.59554 5.77032 3.92251 5.90756C4.24948 6.0448 4.60037 6.116 4.95498 6.11703Z" fill="white"/>
<path d="M9.57297 1.082H9.14397V0.507H8.56897V0.0780029H9.56897L9.57297 1.082Z" fill="white"/>
<path d="M0.889999 1.08203H0.460999V0.0820312H1.461V0.511032H0.885994L0.889999 1.08203Z" fill="white"/>
<path d="M1.461 12.15H0.460999V11.15H0.889999V11.725H1.461V12.15Z" fill="white"/>
<path d="M9.573 12.143H8.573V11.714H9.148V11.139H9.577L9.573 12.143Z" fill="white"/>
<path d="M9.35903 3.57301H0.676025V3.03601H9.35903V3.57301Z" fill="white"/>
</svg>
