<svg width="26" height="35" viewBox="0 0 26 35" fill="none" xmlns="http://www.w3.org/2000/svg">
<path d="M12.7757 19.984C6.63174 19.984 1.38574 21.066 1.38574 25.389C1.38574 29.712 6.59974 30.835 12.7757 30.835C18.9187 30.835 24.1657 29.75 24.1657 25.43C24.1657 21.11 18.9517 19.984 12.7757 19.984Z" fill="white"/>
<path opacity="0.4" d="M12.8039 17.281C14.3092 17.3007 15.7863 16.8722 17.0475 16.0502C18.3087 15.2281 19.2969 14.0496 19.8865 12.6644C20.4761 11.2792 20.6405 9.75003 20.3588 8.27119C20.077 6.79236 19.3619 5.43071 18.3042 4.35938C17.2466 3.28806 15.8943 2.55544 14.4192 2.25469C12.9441 1.95394 11.4129 2.09864 10.0202 2.6704C8.6276 3.24215 7.43645 4.21512 6.59823 5.46561C5.76002 6.7161 5.3126 8.18761 5.31286 9.69304C5.3031 10.6841 5.48949 11.6672 5.86129 12.5859C6.23309 13.5046 6.78296 14.3407 7.47923 15.046C8.17551 15.7513 9.00443 16.3119 9.91826 16.6955C10.8321 17.079 11.8128 17.2781 12.8039 17.281Z" fill="white"/>
<path d="M25.7127 3.20602H24.5127V1.60002H22.9067V0.400024H25.7127V3.20602Z" fill="white"/>
<path d="M1.44365 3.20602H0.243652V0.400024H3.04965V1.60002H1.44365V3.20602Z" fill="white"/>
<path d="M3.04965 34.143H0.243652V31.337H1.44365V32.943H3.04965V34.143Z" fill="white"/>
<path d="M25.7127 34.125H22.9067V32.925H24.5127V31.319H25.7127V34.125Z" fill="white"/>
<path d="M25.1138 10.1689H0.84375V8.66895H25.1138V10.1689Z" fill="white"/>
</svg>
