<svg width="13" height="15" viewBox="0 0 13 15" fill="none" xmlns="http://www.w3.org/2000/svg">
<path d="M6.41504 0.416977C7.26304 0.733977 8.11494 1.05393 8.96094 1.36693C9.98094 1.74193 10.9999 2.11697 12.0239 2.47997C12.134 2.51031 12.2312 2.57542 12.3013 2.66551C12.3714 2.7556 12.4107 2.86585 12.4131 2.97997C12.6217 4.74271 12.5624 6.52685 12.2378 8.27196C11.9326 10.1038 11.0101 11.7761 9.62305 13.011C8.78017 13.74 7.75748 14.2299 6.66113 14.4299C5.9483 14.5099 5.22751 14.3742 4.59277 14.04C3.65519 13.63 2.81791 13.0212 2.13867 12.2558C1.45944 11.4905 0.954856 10.5866 0.65918 9.60692C0.298908 8.54707 0.0912794 7.44135 0.0429688 6.32298C0.0344752 6.23552 0.0204549 6.14867 0.000976562 6.06297V4.33897C0.0379766 3.92897 0.0939102 3.51902 0.10791 3.10802C0.0992525 2.95516 0.144447 2.80409 0.23584 2.68126C0.327232 2.55843 0.459011 2.47165 0.60791 2.43602C1.60791 2.09202 2.59205 1.727 3.58105 1.364C4.42905 1.053 5.27414 0.733 6.11914 0.416L6.41504 0.416977ZM11.6641 5.20494C11.6361 4.63194 11.6001 4.05895 11.5801 3.48595C11.5879 3.41318 11.5687 3.34017 11.5264 3.2805C11.484 3.22083 11.4214 3.17863 11.3501 3.16197C9.7321 2.58297 8.11995 1.99198 6.50195 1.41698C6.34828 1.3668 6.18248 1.3668 6.02881 1.41698C4.41981 1.98898 2.81698 2.57704 1.20898 3.15404C1.13283 3.16834 1.06481 3.21016 1.01758 3.27159C0.97035 3.33303 0.947366 3.40965 0.953125 3.48692C0.940125 4.26792 0.884973 5.04994 0.896973 5.82994C0.901106 7.09895 1.1291 8.35731 1.5708 9.54698C1.87064 10.4689 2.38854 11.3049 3.08057 11.9839C3.77259 12.6628 4.6184 13.1648 5.5459 13.447C5.85124 13.5564 6.17801 13.593 6.5 13.5539C7.46612 13.3652 8.36826 12.9338 9.12158 12.3002C9.8749 11.6665 10.4548 10.8515 10.8062 9.93199C11.4191 8.43354 11.7113 6.82324 11.6641 5.20494Z" fill="white"/>
<path d="M8.07573 6.34392C8.70173 6.38392 8.90971 6.60594 8.90971 7.19194C8.90971 7.96394 8.90971 8.73696 8.90971 9.50896C8.90971 10.048 8.67369 10.292 8.13969 10.295C6.88236 10.299 5.62536 10.299 4.3687 10.295C4.26707 10.3082 4.16385 10.2976 4.06694 10.2643C3.97003 10.231 3.88213 10.1758 3.8101 10.103C3.73808 10.0301 3.68405 9.94146 3.6519 9.84416C3.61975 9.74686 3.61063 9.64337 3.62504 9.54192C3.62504 8.78992 3.62504 8.03698 3.62504 7.28398C3.62504 6.59898 3.77203 6.42295 4.45903 6.32695C4.45903 5.93695 4.45903 5.54395 4.45903 5.14995C4.44267 4.95608 4.46917 4.76102 4.53667 4.57854C4.60416 4.39606 4.71059 4.23061 4.84917 4.09404C4.98774 3.95747 5.15498 3.85308 5.33842 3.78825C5.52187 3.72343 5.71708 3.69974 5.91069 3.71892C6.17869 3.71892 6.44598 3.71892 6.71098 3.71892C6.8899 3.71191 7.06838 3.74163 7.2354 3.8062C7.40241 3.87076 7.554 3.96888 7.68168 4.09441C7.80937 4.21994 7.91019 4.37029 7.97758 4.53618C8.04498 4.70207 8.07773 4.87999 8.07377 5.05901C8.08077 5.48101 8.07573 5.90492 8.07573 6.34392ZM5.3477 6.33501H7.18559V6.049C7.18559 5.713 7.19059 5.37694 7.18559 5.04094C7.19114 4.98115 7.18375 4.92087 7.16362 4.8643C7.14348 4.80773 7.11146 4.75626 7.06938 4.71342C7.0273 4.67059 6.97617 4.6374 6.91997 4.61626C6.86377 4.59511 6.80358 4.58651 6.7437 4.59099C6.4287 4.57699 6.11097 4.57699 5.79497 4.59099C5.73517 4.58667 5.67477 4.59541 5.6187 4.61662C5.56262 4.63784 5.51222 4.67097 5.47026 4.71379C5.42829 4.75661 5.3961 4.80805 5.37602 4.86455C5.35594 4.92104 5.34852 4.98124 5.35405 5.04094C5.34305 5.46494 5.3477 5.89001 5.3477 6.33501ZM5.99174 8.799C5.99174 8.927 5.99874 9.05601 5.99174 9.18401C5.97874 9.38401 6.08669 9.43399 6.26469 9.43999C6.49069 9.44699 6.54987 9.33998 6.54887 9.13298C6.47498 8.72766 6.55425 8.30926 6.77104 7.95891C6.93704 7.74891 6.79186 7.50201 6.59086 7.34001C6.4911 7.26482 6.36801 7.22663 6.24321 7.2321C6.1184 7.23757 5.99958 7.28628 5.90678 7.36992C5.80454 7.44352 5.73563 7.55479 5.71538 7.67912C5.69512 7.80346 5.72528 7.93076 5.79887 8.033C5.88276 8.13932 5.94303 8.26216 5.97612 8.39348C6.00921 8.5248 6.01426 8.6616 5.99077 8.79497L5.99174 8.799Z" fill="white"/>
</svg>
