<svg width="34" height="34" viewBox="0 0 34 34" fill="none" xmlns="http://www.w3.org/2000/svg">
<g filter="url(#filter0_b_3:293)">
<circle cx="16.665" cy="16.665" r="16.665" fill="white" fill-opacity="0.5"/>
</g>
<path d="M24.6858 16.3381C24.6868 17.9897 24.1975 19.6044 23.28 20.9777C22.3625 22.351 21.0582 23.4211 19.532 24.0524C18.0058 24.6837 16.3263 24.8479 14.7068 24.524C13.0872 24.2001 11.6004 23.4029 10.4343 22.2332C9.26828 21.0635 8.4758 19.574 8.15699 17.9534C7.83817 16.3329 8.00724 14.6542 8.64331 13.1299C9.27938 11.6057 10.3536 10.3045 11.7297 9.39129C13.1059 8.47807 14.7222 7.99392 16.3738 8.00006C18.5799 8.00931 20.6927 8.8915 22.2502 10.4539C23.8078 12.0163 24.6834 14.1319 24.6858 16.3381ZM8.67115 16.438C8.72115 16.838 8.75779 17.347 8.85279 17.847C9.08672 19.06 9.62193 20.1948 10.4089 21.147C10.4282 21.1786 10.459 21.2014 10.4949 21.2105C10.5307 21.2197 10.5688 21.2144 10.6008 21.196C11.7455 20.7886 12.8924 20.3854 14.0418 19.986C14.1508 19.948 14.2072 19.8971 14.2112 19.7861C14.2495 19.3244 14.1785 18.8602 14.0042 18.4311C13.9096 18.1943 13.8307 17.9514 13.7688 17.704C13.7498 17.5599 13.7107 17.4191 13.6521 17.2861C13.39 16.8841 13.2148 16.4317 13.1379 15.9581C13.0594 15.6348 13.0594 15.2974 13.1379 14.9741C13.1809 14.8404 13.2003 14.7003 13.1951 14.56C13.1611 14.11 13.0947 13.66 13.0627 13.214C13.0127 12.6019 13.1636 11.9901 13.4919 11.4711C13.8203 10.9521 14.3085 10.5541 14.8831 10.3371C15.7132 10.0365 16.6152 9.99591 17.469 10.221C18.1753 10.3875 18.7913 10.8177 19.1907 11.4236C19.59 12.0296 19.7425 12.7653 19.6169 13.48C19.5165 14.0347 19.5097 14.6021 19.5969 15.159C19.6906 15.8845 19.5125 16.619 19.0969 17.221C19.0569 17.2715 19.0271 17.3292 19.009 17.391C18.9296 17.8629 18.7843 18.3213 18.5779 18.753C18.4288 19.0642 18.3633 19.4088 18.3879 19.753C18.3851 19.8036 18.4003 19.8537 18.4309 19.8942C18.4615 19.9347 18.5054 19.963 18.5549 19.9741C19.7323 20.3741 20.9084 20.7777 22.0837 21.185C22.1227 21.2064 22.1689 21.2117 22.2117 21.1998C22.2545 21.1878 22.2905 21.1595 22.3127 21.121C23.1349 20.0919 23.6769 18.8676 23.886 17.5671C24.0951 16.2665 23.9643 14.934 23.5061 13.699C23.0479 12.464 22.278 11.3686 21.2712 10.5191C20.2645 9.66961 19.0554 9.09493 17.761 8.85101C16.0054 8.47044 14.1706 8.76839 12.6257 9.68499C11.4207 10.3511 10.4179 11.3296 9.72193 12.5176C9.02595 13.7056 8.66299 15.0593 8.67115 16.4361V16.438Z" fill="white"/>
<defs>
<filter id="filter0_b_3:293" x="-10" y="-10" width="53.33" height="53.33" filterUnits="userSpaceOnUse" color-interpolation-filters="sRGB">
<feFlood flood-opacity="0" result="BackgroundImageFix"/>
<feGaussianBlur in="BackgroundImage" stdDeviation="5"/>
<feComposite in2="SourceAlpha" operator="in" result="effect1_backgroundBlur_3:293"/>
<feBlend mode="normal" in="SourceGraphic" in2="effect1_backgroundBlur_3:293" result="shape"/>
</filter>
</defs>
</svg>
