<svg width="16" height="15" viewBox="0 0 16 15" fill="none" xmlns="http://www.w3.org/2000/svg">
<path d="M2.74366 6.87094C3.07974 6.69818 3.46776 6.65522 3.83351 6.75021C4.19925 6.84519 4.51703 7.07149 4.72657 7.38595C5.42657 8.24595 6.18357 9.05791 6.87257 9.92391C7.07671 10.1925 7.19726 10.5154 7.21876 10.852C7.26376 11.793 7.2379 12.737 7.2339 13.68C7.25605 13.8428 7.23998 14.0085 7.18751 14.1641C7.13504 14.3198 7.04734 14.4613 6.93116 14.5775C6.81499 14.6937 6.67377 14.7814 6.51808 14.8338C6.36239 14.8863 6.1965 14.9021 6.0337 14.88C5.4217 14.88 4.80974 14.885 4.19874 14.88C4.05168 14.8889 3.90447 14.8667 3.76661 14.8147C3.62876 14.7626 3.50341 14.682 3.39894 14.5781C3.29447 14.4742 3.21294 14.3493 3.16017 14.2118C3.1074 14.0742 3.08461 13.9271 3.09279 13.78C3.07704 13.5578 2.99933 13.3443 2.86866 13.1639C2.04166 12.0809 1.18383 11.022 0.361829 9.936C0.169952 9.70217 0.0510246 9.41686 0.0205203 9.11593C-0.00947974 7.35793 -0.0012688 5.6 0.0117312 3.842C0.00520304 3.57742 0.0818168 3.31744 0.230481 3.09847C0.379146 2.87951 0.59251 2.71248 0.840833 2.62094C1.0743 2.51275 1.33467 2.47632 1.58888 2.5162C1.84309 2.55607 2.07943 2.67046 2.26857 2.84493C2.42485 2.97688 2.54903 3.14297 2.63087 3.33041C2.71271 3.51785 2.7502 3.72168 2.74074 3.92599C2.74074 4.88599 2.74366 5.83994 2.74366 6.87094ZM0.680677 6.462C0.680677 7.277 0.664907 8.09295 0.691907 8.90695C0.703025 9.14258 0.78261 9.3699 0.920911 9.561C1.73691 10.636 2.57066 11.6959 3.41066 12.7519C3.66165 13.0271 3.7981 13.3876 3.79249 13.76C3.77749 14.06 3.9226 14.208 4.2256 14.206C4.8496 14.206 5.47465 14.206 6.09865 14.206C6.39065 14.206 6.54159 14.081 6.53859 13.766C6.52859 12.798 6.53889 11.8299 6.52589 10.8659C6.52216 10.6912 6.46218 10.5224 6.35548 10.384C5.58448 9.468 4.80068 8.56393 4.01368 7.66293C3.95755 7.58507 3.88544 7.52002 3.80226 7.47213C3.71908 7.42424 3.62677 7.39467 3.53126 7.38522C3.43575 7.37576 3.3395 7.38667 3.24855 7.41732C3.15759 7.44797 3.07423 7.49762 3.00392 7.56295C2.93398 7.62393 2.8773 7.69879 2.8379 7.7828C2.7985 7.86681 2.77708 7.9581 2.77491 8.05087C2.77275 8.14363 2.78977 8.23587 2.82521 8.32162C2.86065 8.40737 2.91346 8.48474 2.98048 8.54891C3.27248 8.90291 3.56869 9.24894 3.86769 9.59994C4.02169 9.77894 4.06748 9.96397 3.87648 10.135C3.68548 10.306 3.49853 10.207 3.35353 10.035C3.08253 9.714 2.82889 9.37698 2.54689 9.06698C2.2502 8.74675 2.09163 8.32224 2.10646 7.88595C2.10646 6.59895 2.08974 5.31294 2.07374 4.02694C2.06774 3.51294 1.79378 3.18692 1.38478 3.18392C0.975778 3.18092 0.684583 3.52902 0.684583 4.05502C0.681249 4.85702 0.68001 5.65933 0.680677 6.462Z" fill="white"/>
<path d="M12.7499 6.87103C12.7499 5.81303 12.7419 4.83306 12.7499 3.85406C12.7551 3.54009 12.8688 3.23755 13.0717 2.99786C13.2745 2.75817 13.5539 2.59612 13.8627 2.53912C14.1715 2.48212 14.4904 2.53365 14.7655 2.68512C15.0406 2.83658 15.255 3.07862 15.3719 3.37005C15.4404 3.5626 15.4738 3.7657 15.4716 3.97003C15.4806 5.66503 15.4928 7.36004 15.4618 9.05304C15.4398 9.37969 15.3224 9.69271 15.1239 9.95306C14.3069 11.0431 13.4439 12.099 12.6239 13.183C12.4887 13.3754 12.4091 13.6013 12.3939 13.836C12.3956 13.9765 12.3689 14.1159 12.3153 14.2458C12.2617 14.3757 12.1821 14.4934 12.0819 14.5919C11.9817 14.6903 11.8626 14.7674 11.7318 14.8187C11.601 14.8699 11.4611 14.8943 11.3207 14.8901C10.6573 14.8987 9.99488 14.8987 9.33288 14.8901C9.19175 14.8971 9.05038 14.8746 8.91833 14.8243C8.78629 14.7739 8.66646 14.6968 8.56579 14.5976C8.46512 14.4984 8.38617 14.3795 8.33386 14.2482C8.28155 14.117 8.25672 13.9762 8.26159 13.835C8.24359 12.803 8.2389 11.77 8.2699 10.735C8.2852 10.4697 8.38178 10.2154 8.54675 10.007C9.33608 9.04035 10.1436 8.0887 10.9696 7.15204C11.1914 6.91173 11.4879 6.7532 11.8109 6.70221C12.1339 6.65121 12.4648 6.71073 12.7499 6.87103ZM14.8119 6.50506C14.8119 5.66406 14.8348 4.82197 14.7958 3.98297C14.7759 3.72461 14.6565 3.48414 14.4628 3.31207C14.0168 2.96707 13.4367 3.32998 13.4237 3.94598C13.3967 5.28298 13.4018 6.62107 13.3588 7.95807C13.3508 8.27317 13.2602 8.58066 13.0966 8.85003C12.7931 9.27456 12.4643 9.68026 12.1117 10.065C12.0855 10.1096 12.0494 10.1475 12.0062 10.176C11.9631 10.2044 11.914 10.2226 11.8627 10.2291C11.8114 10.2355 11.7592 10.2301 11.7103 10.2133C11.6614 10.1965 11.6174 10.1687 11.5809 10.132C11.4029 9.97202 11.4629 9.79101 11.6029 9.62701C11.8829 9.29701 12.1618 8.96597 12.4398 8.63397C12.5201 8.56582 12.5845 8.48101 12.6288 8.38543C12.673 8.28986 12.6962 8.18582 12.6962 8.0805C12.6962 7.97518 12.673 7.87115 12.6288 7.77557C12.5845 7.67999 12.5201 7.59519 12.4398 7.52704C12.1248 7.26704 11.7396 7.327 11.4066 7.711C10.6456 8.585 9.88557 9.46005 9.13757 10.3441C9.03073 10.466 8.96525 10.6185 8.95056 10.78C8.93456 11.774 8.94377 12.767 8.94177 13.761C8.93249 13.8216 8.93742 13.8834 8.95642 13.9416C8.97542 13.9998 9.00795 14.0527 9.05115 14.0961C9.09434 14.1395 9.14732 14.1722 9.20544 14.1915C9.26356 14.2107 9.32506 14.216 9.38562 14.207C10.0096 14.207 10.6346 14.207 11.2596 14.207C11.5596 14.207 11.7146 14.074 11.6996 13.767C11.6931 13.3946 11.8286 13.0336 12.078 12.757C12.924 11.689 13.7638 10.6161 14.5868 9.53106C14.7173 9.34972 14.7918 9.13425 14.8016 8.91107C14.8256 8.11107 14.8119 7.31106 14.8119 6.50506Z" fill="white"/>
<path d="M9.30765 0.983031C9.28494 0.806132 9.28888 0.626858 9.31888 0.451048C9.36888 0.320048 9.51904 0.120079 9.60404 0.132079C9.68261 0.148517 9.75577 0.183548 9.8179 0.234374C9.88004 0.285199 9.92928 0.350315 9.96097 0.424071C10.018 0.679071 9.96066 0.958998 9.99466 1.224C10.0224 1.38764 10.1005 1.53862 10.2178 1.656C10.4218 1.82838 10.6346 1.99025 10.855 2.14099C11.0576 2.2775 11.2102 2.47617 11.2901 2.70703C11.37 2.93789 11.3728 3.18848 11.2979 3.42102C11.2192 3.65177 11.0667 3.85012 10.8638 3.98535C10.661 4.12058 10.4191 4.18519 10.1758 4.16907C10.1268 4.16907 10.0758 4.17398 10.0078 4.17798V5.61499C10.2163 5.59381 10.4265 5.59824 10.6338 5.62805C10.7718 5.66405 10.881 5.81902 11.003 5.92102C10.8959 6.05383 10.7764 6.17604 10.646 6.28601C10.577 6.33401 10.4457 6.29797 10.3457 6.29797C8.6004 6.29797 6.85523 6.29797 5.1099 6.29797C4.97395 6.31548 4.8359 6.29623 4.70999 6.24206C4.65385 6.20005 4.60726 6.14622 4.57425 6.08435C4.54124 6.02248 4.52222 5.95406 4.51859 5.88403C4.52359 5.79203 4.68158 5.65303 4.78958 5.63403C5.02215 5.61013 5.25653 5.60615 5.48978 5.62207V4.25098C5.18688 4.18789 4.89255 4.08926 4.61283 3.95703C4.46817 3.86162 4.34897 3.73227 4.26566 3.58032C4.18235 3.42837 4.13746 3.25847 4.1348 3.0852C4.13214 2.91194 4.17191 2.74061 4.25052 2.58618C4.32913 2.43175 4.44431 2.29878 4.58597 2.19897C5.43097 1.54397 6.29658 0.916991 7.16458 0.291991C7.34514 0.156584 7.5664 0.0858034 7.79203 0.0910631C8.01765 0.0963229 8.23468 0.17737 8.40873 0.321044C8.55473 0.421044 8.69395 0.53499 8.83695 0.64099C8.97995 0.74699 9.09565 0.829031 9.30765 0.983031ZM9.30765 5.59399C9.30765 4.99399 9.30765 4.42508 9.30765 3.85608C9.30598 3.81939 9.29708 3.78339 9.28128 3.75024C9.26548 3.7171 9.2433 3.68736 9.21585 3.66296C8.73185 3.30096 8.23999 2.94706 7.75199 2.59106C7.25999 2.95106 6.7959 3.28603 6.3389 3.62903C6.26788 3.67742 6.21848 3.75178 6.20169 3.83606C6.19069 4.41606 6.19681 4.99699 6.19681 5.59399H9.30765ZM10.7456 3.06396C10.651 2.91896 10.541 2.78492 10.417 2.66406C9.63403 2.07506 8.83877 1.50104 8.05277 0.915038C7.96668 0.838646 7.85485 0.797458 7.73978 0.799681C7.62471 0.801905 7.51474 0.84734 7.43167 0.927001C6.65767 1.506 5.87371 2.07205 5.09671 2.64905C4.87971 2.81005 4.69687 3.01206 4.90287 3.28906C5.10887 3.56606 5.34706 3.51802 5.60306 3.32702C6.17206 2.89702 6.76393 2.49705 7.31693 2.05005C7.37299 1.99089 7.4403 1.9437 7.51517 1.9115C7.59005 1.8793 7.67097 1.86279 7.75248 1.86279C7.83398 1.86279 7.91442 1.8793 7.98929 1.9115C8.06417 1.9437 8.13196 1.99089 8.18802 2.05005C8.76602 2.50905 9.36276 2.94401 9.96976 3.36401C10.0426 3.40602 10.1231 3.43308 10.2066 3.44372C10.29 3.45437 10.3745 3.44839 10.4556 3.42602C10.5616 3.39502 10.6337 3.21306 10.7427 3.06506L10.7456 3.06396Z" fill="white"/>
</svg>
