<svg width="20" height="41" viewBox="0 0 20 41" fill="none" xmlns="http://www.w3.org/2000/svg">
<path d="M0.00201416 35.744C0.398094 34.9111 1.01039 34.1997 1.77502 33.684C3.14502 32.42 4.53801 31.184 5.93201 29.942C6.06183 29.8468 6.15992 29.7146 6.21344 29.5628C6.26696 29.411 6.27345 29.2465 6.23203 29.0909C6.10403 28.4359 6.06301 27.7639 5.98401 27.0839C6.21492 27.057 6.44724 27.1211 6.63168 27.2626C6.81613 27.4041 6.93821 27.6119 6.97202 27.8419C7.41402 29.3509 7.90402 30.848 8.41702 32.335C8.48704 32.4795 8.50274 32.6444 8.46124 32.7995C8.41975 32.9546 8.32383 33.0897 8.19101 33.1799C6.69101 34.5159 5.20801 35.8689 3.71701 37.2139C2.17501 38.6049 0.972019 38.4069 0.00701904 36.6069L0.00201416 35.744Z" fill="white"/>
<path d="M19.338 6.04897C19.238 5.92597 19.061 5.80798 19.052 5.67898C19.018 5.18998 19.045 4.69698 19.038 4.20498C19.027 3.46698 18.932 3.37697 18.174 3.34997C18.0515 3.35769 17.9286 3.35334 17.807 3.33697C17.6778 3.31899 17.5578 3.25973 17.465 3.16799C17.426 3.11199 17.505 2.93797 17.572 2.84597C18.386 1.72597 18.388 1.72797 16.836 1.07897C17.0762 0.980765 17.3398 0.954021 17.5948 1.00192C17.8499 1.04981 18.0857 1.17033 18.274 1.34899C18.862 1.99199 18.309 2.49098 18.029 2.86398L19.339 3.58297L19.338 6.04897Z" fill="white"/>
<path d="M6.47507 21.347L4.10104 18.659C4.40104 18.313 4.68005 17.972 4.97705 17.645C5.85805 16.673 6.74905 15.709 7.62805 14.735C7.79538 14.5762 7.92863 14.3849 8.01968 14.173C8.11074 13.961 8.15771 13.7327 8.15771 13.502C8.15771 13.2713 8.11074 13.043 8.01968 12.831C7.92863 12.619 7.79538 12.4278 7.62805 12.269C7.45683 12.113 7.25485 11.9946 7.03513 11.9214C6.8154 11.8481 6.58277 11.8216 6.3522 11.8437C6.12164 11.8657 5.89825 11.9358 5.69638 12.0493C5.49451 12.1629 5.31863 12.3174 5.18005 12.503C4.70705 13.003 4.24306 13.519 3.75006 14.055C3.7364 13.5447 3.84179 13.0382 4.05792 12.5758C4.27405 12.1133 4.59495 11.7076 4.99518 11.3907C5.3954 11.0739 5.86397 10.8546 6.36368 10.7503C6.86339 10.6461 7.38051 10.6596 7.87405 10.79C9.53105 11.229 11.1741 11.738 12.8741 12.237L14.4041 8.117L14.8481 7.13998C14.8481 7.13998 14.8261 6.87098 15.3321 6.91198C15.4713 6.88696 15.6138 6.88696 15.7531 6.91198C16.7191 6.90498 17.6861 6.91198 18.7271 6.91198C18.8431 7.11198 18.8121 7.29399 18.4271 7.34399C17.9431 7.40699 17.461 7.491 17.106 7.544C16.949 8.193 16.8561 8.78499 16.6601 9.34399C16.1091 10.907 15.523 12.457 14.938 14.007C14.9029 14.2067 14.8216 14.3954 14.7005 14.5581C14.5795 14.7207 14.422 14.8528 14.2408 14.9438C14.0596 15.0347 13.8596 15.082 13.6568 15.0819C13.4541 15.0817 13.2542 15.0342 13.0731 14.943C12.0324 14.6437 10.9921 14.3437 9.95206 14.043C9.80106 14 9.64606 13.967 9.34406 13.893C9.34406 15.317 9.37504 16.663 9.33804 18.007C9.25404 20.983 10.2381 23.724 11.1381 26.488C12.3434 30.204 13.5434 33.921 14.738 37.639C14.8302 37.8906 14.8707 38.1582 14.857 38.4258C14.8434 38.6934 14.7759 38.9555 14.6587 39.1965C14.5414 39.4374 14.3768 39.6522 14.1747 39.8281C13.9725 40.004 13.7369 40.1373 13.4821 40.22C13.2295 40.3091 12.9612 40.3452 12.6941 40.326C12.4269 40.3069 12.1666 40.233 11.9292 40.1089C11.6919 39.9848 11.4826 39.8131 11.3145 39.6046C11.1464 39.3961 11.023 39.1553 10.9521 38.897C9.70606 35.088 8.48904 31.27 7.23904 27.462C7.19623 27.3279 7.12629 27.204 7.03357 27.098C6.94085 26.992 6.82731 26.9062 6.70004 26.846C5.02052 26.2929 3.62561 25.102 2.81604 23.53L5.64606 22.185C6.14606 21.948 6.64606 21.721 7.13806 21.464C7.28995 21.3579 7.42742 21.2325 7.54706 21.091L7.43106 20.94L6.47507 21.347Z" fill="white"/>
<path d="M6.09694 5.189C7.23994 6.308 8.62395 6.35998 10.0069 6.59998C9.99814 7.12859 9.86034 7.64707 9.60555 8.1103C9.35076 8.57353 8.9867 8.96751 8.54497 9.258C7.8323 9.76378 6.95995 9.99306 6.09069 9.90305C5.22142 9.81305 4.41457 9.4099 3.82064 8.76884C3.2267 8.12777 2.88625 7.29258 2.86275 6.41898C2.83926 5.54539 3.13433 4.69306 3.69295 4.021C4.25945 3.34957 5.04897 2.90478 5.91677 2.76814C6.78457 2.63149 7.67254 2.81213 8.41796 3.27699C8.73201 3.43975 9.07608 3.53643 9.42895 3.56101C10.3369 3.68101 11.259 3.71399 12.155 3.88599C12.455 3.94199 12.686 4.315 12.949 4.542C12.712 4.794 12.5209 5.16799 12.2309 5.27699C11.254 5.67064 10.2083 5.86561 9.15511 5.8505C8.1019 5.83539 7.06224 5.61052 6.09694 5.189Z" fill="white"/>
<path d="M3.57702 18.651L6.11404 21.523C5.35904 21.883 4.65403 22.235 3.93203 22.548C3.85191 22.5593 3.77027 22.5517 3.69366 22.5256C3.61705 22.4995 3.54762 22.4558 3.49102 22.398C2.62302 21.442 1.76302 20.477 0.922023 19.498C0.806826 19.3794 0.716349 19.2391 0.655788 19.0853C0.595227 18.9314 0.565798 18.7671 0.56924 18.6018C0.572682 18.4365 0.608926 18.2735 0.675838 18.1223C0.74275 17.9711 0.839006 17.8347 0.959041 17.721C2.47971 16.029 4.01004 14.3457 5.55004 12.671C5.65771 12.5388 5.79151 12.4304 5.94305 12.3523C6.09459 12.2743 6.26061 12.2284 6.43072 12.2175C6.60083 12.2066 6.77135 12.231 6.93161 12.289C7.09186 12.3471 7.23839 12.4376 7.36203 12.555C7.48938 12.6678 7.59258 12.8052 7.66534 12.959C7.7381 13.1128 7.77892 13.2797 7.78537 13.4497C7.79181 13.6197 7.76375 13.7893 7.70285 13.9481C7.64195 14.107 7.54947 14.2519 7.43103 14.374C6.38903 15.56 5.31503 16.717 4.25503 17.888C4.03603 18.131 3.82202 18.374 3.57702 18.651Z" fill="white"/>
<path d="M13.427 1.137C13.6198 1.05835 13.8281 1.02532 14.0358 1.04054C14.2434 1.05576 14.4447 1.11881 14.624 1.22474C14.8032 1.33067 14.9555 1.47664 15.069 1.6512C15.1824 1.82576 15.254 2.0242 15.278 2.231C15.468 3.546 15.643 3.71498 16.961 3.85398C18.255 3.98998 18.69 4.729 18.126 6.054C18.107 5.777 18.078 5.5 18.071 5.223C18.052 4.493 17.809 4.23599 17.071 4.19999C16.7449 4.23423 16.4153 4.18773 16.1114 4.06462C15.8074 3.9415 15.5384 3.74556 15.328 3.494C15.1679 3.25942 15.0652 2.99054 15.028 2.709C14.912 1.7 14.77 1.517 13.767 1.265C13.699 1.247 13.629 1.213 13.427 1.137Z" fill="white"/>
</svg>
