<svg width="41" height="13" viewBox="0 0 41 13" fill="none" xmlns="http://www.w3.org/2000/svg">
<path d="M11.853 11.116H17.386V12.316H10.318V0.971001H11.853V11.116ZM20.79 12.316H19.248V0.971001H20.791L20.79 12.316ZM27.047 9.339L27.304 10.282H27.351L27.608 9.339L30.538 0.970001H32.198L27.983 12.316H26.666L22.45 0.971001H24.117L27.047 9.339ZM39.889 7.057H35.229V11.117H40.683V12.317H33.694V0.971001H40.594V2.179H35.229V5.849H39.889V7.057Z" fill="white"/>
<path d="M3 9.97101C4.65685 9.97101 6 8.62786 6 6.97101C6 5.31415 4.65685 3.97101 3 3.97101C1.34315 3.97101 0 5.31415 0 6.97101C0 8.62786 1.34315 9.97101 3 9.97101Z" fill="#DB2424"/>
</svg>
