<svg width="38" height="29" viewBox="0 0 38 29" fill="none" xmlns="http://www.w3.org/2000/svg">
<path d="M3.56299 9.34786C1.22799 7.74786 0.417071 5.80293 1.12207 3.61593C1.42998 2.66666 2.03333 1.84063 2.844 1.25863C3.65466 0.676623 4.63005 0.36915 5.62793 0.380942C6.62509 0.409948 7.58769 0.753302 8.37793 1.36214C9.16817 1.97098 9.74574 2.81405 10.0281 3.77083C10.6641 5.88483 9.82194 7.82283 7.68994 9.24483C8.3976 9.76262 9.03332 10.3724 9.58008 11.0579C10.1124 11.8971 10.4368 12.8512 10.5261 13.8409C10.6571 16.2869 10.581 18.7409 10.562 21.1969C10.562 21.5249 10.5131 22.0199 10.3071 22.1489C9.39713 22.7159 9.60097 23.5689 9.59497 24.3809C9.59497 25.0419 9.60397 25.7019 9.59497 26.3619C9.61382 26.5818 9.5877 26.8033 9.51831 27.0128C9.44892 27.2223 9.33778 27.4155 9.19141 27.5806C9.04503 27.7458 8.86664 27.8795 8.66699 27.9736C8.46735 28.0677 8.2506 28.1202 8.03003 28.1279C7.80108 28.1496 7.57016 28.1212 7.35327 28.0448C7.13638 27.9683 6.93862 27.8455 6.77393 27.685C6.60923 27.5245 6.48144 27.3302 6.39942 27.1153C6.31739 26.9005 6.28324 26.6703 6.29907 26.4409C6.25307 25.2569 6.28906 24.0699 6.28906 22.8409H4.87695C4.87695 24.0129 4.88395 25.1669 4.87695 26.3209C4.90253 26.5556 4.8787 26.7931 4.80689 27.018C4.73507 27.2429 4.61683 27.4503 4.45996 27.6268C4.30309 27.8033 4.11095 27.9449 3.896 28.0426C3.68104 28.1402 3.44802 28.1918 3.21192 28.1939C2.98286 28.1912 2.75701 28.1412 2.5481 28.0472C2.33918 27.9532 2.15186 27.8173 1.9978 27.6478C1.84375 27.4783 1.72618 27.2788 1.65259 27.0618C1.579 26.8449 1.55096 26.6152 1.57007 26.3869C1.54107 25.6959 1.57006 25.0038 1.56006 24.3118C1.54906 23.5548 1.73306 22.7758 0.883058 22.2238C0.624058 22.0558 0.591009 21.4239 0.583009 21.0019C0.555009 18.9269 0.613083 16.8498 0.559083 14.7758C0.446544 13.6727 0.674007 12.5616 1.21094 11.5914C1.74787 10.6212 2.5685 9.83834 3.56299 9.34786Z" fill="white"/>
<path d="M34.8641 9.33492C35.8737 9.82314 36.7062 10.6136 37.2462 11.5965C37.7861 12.5794 38.0068 13.7061 37.8773 14.82C37.8143 16.864 37.9081 18.913 37.8331 20.956C37.7093 21.5087 37.4944 22.0369 37.1971 22.519C37.0482 22.7701 36.943 23.0447 36.886 23.331C36.847 24.336 36.8982 25.346 36.8592 26.352C36.8776 26.5893 36.8444 26.8277 36.762 27.051C36.6796 27.2743 36.55 27.477 36.3819 27.6455C36.2138 27.8139 36.011 27.9439 35.7879 28.0267C35.5648 28.1095 35.3265 28.143 35.0892 28.125C34.1062 28.083 33.5681 27.4309 33.5611 26.2559C33.5561 25.1299 33.5611 24.004 33.5611 22.831H32.2213C32.2213 23.998 32.2353 25.1789 32.2213 26.3609C32.2534 26.8067 32.1085 27.2474 31.8182 27.5872C31.5279 27.9271 31.1156 28.1389 30.6702 28.177C30.4416 28.1981 30.211 28.1708 29.9937 28.0969C29.7764 28.0229 29.5772 27.9039 29.409 27.7478C29.2407 27.5916 29.1073 27.4017 29.0174 27.1905C28.9275 26.9793 28.8832 26.7515 28.8873 26.5219C28.8433 25.7379 28.8781 24.949 28.8731 24.162C28.8731 23.462 29.0221 22.742 28.2271 22.254C27.9971 22.113 27.9272 21.579 27.9222 21.224C27.8972 18.769 27.8722 16.313 27.9222 13.859C27.9397 12.9063 28.2246 11.9778 28.7444 11.1793C29.2643 10.3808 29.9981 9.74452 30.8621 9.34298C28.5111 7.65598 27.7272 5.74299 28.4722 3.55599C28.7996 2.61239 29.4173 1.7967 30.2369 1.22579C31.0564 0.654888 32.0357 0.358108 33.0342 0.378015C34.0308 0.425776 34.9867 0.787042 35.7657 1.41036C36.5447 2.03369 37.1069 2.88716 37.3721 3.84896C37.9621 5.93496 37.1171 7.85392 34.8641 9.33492Z" fill="white"/>
<path d="M22.732 10.8019C22.6821 10.8022 22.6325 10.7926 22.5863 10.7736C22.5401 10.7545 22.4982 10.7264 22.463 10.6909C22.2538 10.4831 22.0273 10.2934 21.786 10.1239C21.7451 10.0953 21.7104 10.0588 21.6837 10.0167C21.657 9.97461 21.6388 9.92769 21.6302 9.87854C21.6217 9.8294 21.6229 9.77902 21.6339 9.73035C21.6448 9.68168 21.6652 9.63572 21.694 9.59497C21.7226 9.55413 21.759 9.5193 21.8011 9.49256C21.8432 9.46581 21.8904 9.44764 21.9396 9.43909C21.9887 9.43054 22.0391 9.4318 22.0878 9.44275C22.1364 9.45371 22.1823 9.47415 22.223 9.50293C22.5003 9.69715 22.7603 9.91496 23.0001 10.1539C23.0712 10.2252 23.1112 10.3218 23.1112 10.4225C23.1112 10.5232 23.0712 10.6197 23.0001 10.6909C22.965 10.7262 22.9231 10.7541 22.8771 10.7732C22.8311 10.7922 22.7818 10.802 22.732 10.8019Z" fill="white"/>
<path d="M21.9132 28.475C21.8254 28.4748 21.7403 28.4442 21.6725 28.3884C21.6046 28.3326 21.5582 28.2551 21.5411 28.169C21.5315 28.12 21.5317 28.0696 21.5416 28.0206C21.5515 27.9717 21.5709 27.9252 21.5987 27.8838C21.6266 27.8424 21.6624 27.8069 21.7039 27.7793C21.7455 27.7517 21.7922 27.7326 21.8412 27.723C22.0809 27.6766 22.3003 27.5571 22.4693 27.3809C22.6384 27.2047 22.7486 26.9805 22.785 26.739C22.796 26.6904 22.8165 26.6445 22.8453 26.6038C22.8741 26.5631 22.9106 26.5284 22.9527 26.5018C22.9949 26.4753 23.042 26.4572 23.0912 26.4489C23.1403 26.4405 23.1905 26.4419 23.2391 26.453C23.3372 26.4754 23.4223 26.5358 23.4759 26.6209C23.5295 26.706 23.5471 26.8089 23.525 26.907C23.4558 27.2916 23.2724 27.6463 22.9984 27.9248C22.7243 28.2033 22.3725 28.3927 21.9891 28.468C21.9641 28.4728 21.9387 28.4751 21.9132 28.475ZM20.233 27.891C20.1705 27.8911 20.1089 27.8757 20.0538 27.8462C19.9987 27.8167 19.9517 27.7741 19.9171 27.7221C19.6495 27.2833 19.5169 26.7755 19.536 26.262V25.682C19.5357 25.5814 19.5755 25.4848 19.6463 25.4133C19.7172 25.3419 19.8135 25.3016 19.9142 25.301C20.0148 25.301 20.1112 25.3409 20.1825 25.412C20.2537 25.483 20.2938 25.5793 20.294 25.6799V26.2579C20.2756 26.6225 20.3637 26.9845 20.5472 27.2999C20.6033 27.3831 20.6243 27.4851 20.6056 27.5836C20.5868 27.6822 20.5298 27.7692 20.4471 27.8259C20.3837 27.8689 20.3086 27.8916 20.232 27.891H20.233ZM23.2271 25.319C23.1267 25.319 23.0303 25.2792 22.9591 25.2084C22.8879 25.1375 22.8475 25.0415 22.847 24.941V24.812C22.847 24.64 22.847 24.4677 22.847 24.2951C22.847 23.9061 22.8471 23.605 22.8631 23.319C22.87 23.1842 22.8986 23.0516 22.9481 22.926C22.9653 22.8792 22.9916 22.8363 23.0255 22.7997C23.0594 22.7631 23.1003 22.7335 23.1456 22.7127C23.1909 22.6918 23.24 22.6802 23.2899 22.6784C23.3397 22.6765 23.3894 22.6846 23.4361 22.702C23.4828 22.7194 23.5256 22.7457 23.5621 22.7797C23.5986 22.8136 23.6281 22.8545 23.6488 22.8998C23.6695 22.9451 23.6812 22.994 23.6829 23.0438C23.6847 23.0936 23.6765 23.1433 23.659 23.1899C23.6385 23.2403 23.6261 23.2937 23.6222 23.348C23.6112 23.624 23.606 23.916 23.606 24.294C23.606 24.4646 23.606 24.6354 23.606 24.806V24.9349C23.6063 24.9848 23.5968 25.0344 23.578 25.0806C23.5591 25.1268 23.5313 25.1688 23.4962 25.2042C23.4611 25.2397 23.4194 25.268 23.3734 25.2874C23.3274 25.3067 23.278 25.3168 23.2281 25.317L23.2271 25.319ZM24.1102 21.734C24.0694 21.734 24.0287 21.7272 23.9901 21.714C23.8947 21.6821 23.8158 21.6135 23.7708 21.5236C23.7259 21.4336 23.7184 21.3295 23.7501 21.234C23.7831 21.1409 23.8027 21.0436 23.8082 20.945C23.8242 20.501 23.834 20.019 23.837 19.473C23.8367 19.423 23.8466 19.3735 23.8658 19.3273C23.885 19.2811 23.913 19.2391 23.9486 19.204C23.9842 19.1689 24.0266 19.1412 24.0731 19.1227C24.1195 19.1041 24.1691 19.095 24.2191 19.096C24.2689 19.0962 24.3182 19.1064 24.3641 19.1257C24.41 19.1451 24.4519 19.1733 24.4869 19.2087C24.5219 19.2442 24.5495 19.2863 24.5682 19.3325C24.5869 19.3787 24.5964 19.4282 24.596 19.478C24.596 20.032 24.583 20.521 24.566 20.978C24.5567 21.1486 24.5232 21.317 24.4662 21.478C24.4407 21.5524 24.3927 21.6171 24.3289 21.6631C24.2652 21.7091 24.1888 21.7343 24.1102 21.735V21.734ZM24.21 17.967C24.1098 17.9671 24.0136 17.9273 23.9425 17.8567C23.8713 17.7861 23.831 17.6902 23.8302 17.59C23.8302 17.249 23.8302 16.907 23.8302 16.566C23.8302 16.276 23.8302 15.9856 23.8302 15.695C23.8328 15.5948 23.8742 15.4996 23.9459 15.4296C24.0176 15.3595 24.114 15.3202 24.2142 15.32C24.3148 15.3213 24.4107 15.3625 24.481 15.4345C24.5513 15.5064 24.5903 15.6034 24.5892 15.704C24.5859 15.9913 24.5859 16.2783 24.5892 16.5649C24.5892 16.9049 24.5892 17.245 24.5892 17.585C24.5896 17.6348 24.5801 17.6843 24.5614 17.7305C24.5426 17.7767 24.5148 17.8188 24.4798 17.8543C24.4448 17.8897 24.4032 17.9179 24.3573 17.9373C24.3113 17.9566 24.2619 17.9668 24.212 17.967H24.21ZM24.2052 14.192C24.11 14.1919 24.0183 14.156 23.9483 14.0916C23.8783 14.0271 23.835 13.9388 23.827 13.844C23.7836 13.2547 23.6487 12.6757 23.4271 12.1279C23.4073 12.082 23.3967 12.0326 23.3961 11.9826C23.3954 11.9325 23.4046 11.8829 23.4232 11.8364C23.4418 11.79 23.4695 11.7477 23.5045 11.7119C23.5395 11.6761 23.581 11.6476 23.627 11.6279C23.673 11.6081 23.7225 11.5976 23.7725 11.5969C23.8226 11.5963 23.8721 11.6056 23.9185 11.6242C23.965 11.6427 24.0075 11.6703 24.0433 11.7053C24.0791 11.7403 24.1074 11.782 24.127 11.828C24.3793 12.4487 24.5336 13.1048 24.5841 13.773C24.5924 13.8732 24.5605 13.9726 24.4957 14.0494C24.4308 14.1263 24.3383 14.1743 24.2381 14.183L24.2052 14.192Z" fill="white"/>
<path d="M19.9121 24.1629C19.8115 24.1626 19.7151 24.1226 19.644 24.0513C19.573 23.9801 19.533 23.8835 19.533 23.7829V23.2139H18.9521C18.9521 23.4033 18.9521 23.5926 18.9521 23.7819C18.9524 23.8318 18.9427 23.8812 18.9238 23.9273C18.905 23.9735 18.8772 24.0155 18.842 24.0509C18.8069 24.0862 18.7652 24.1144 18.7192 24.1336C18.6732 24.1528 18.6238 24.1628 18.574 24.1629C18.4735 24.1629 18.3774 24.1232 18.3062 24.0523C18.2349 23.9815 18.1946 23.8854 18.1941 23.785C18.1941 23.467 18.1941 23.1499 18.1941 22.8339V22.4539H20.2939V23.7829C20.2941 23.833 20.2843 23.8827 20.2651 23.929C20.246 23.9753 20.2179 24.0173 20.1824 24.0527C20.1468 24.088 20.1047 24.1159 20.0583 24.1348C20.012 24.1538 19.9622 24.1633 19.9121 24.1629Z" fill="white"/>
<path d="M16.5271 28.534C16.5016 28.5339 16.4762 28.5311 16.4512 28.5259C16.0667 28.4429 15.7151 28.2483 15.4407 27.9666C15.1662 27.6849 14.9809 27.3284 14.908 26.9419C14.8869 26.8436 14.9057 26.7408 14.9602 26.6563C15.0148 26.5718 15.1006 26.5124 15.199 26.491C15.2974 26.4699 15.4001 26.4887 15.4846 26.5433C15.5692 26.5978 15.6288 26.6837 15.6501 26.782C15.6906 27.0247 15.8027 27.2495 15.9722 27.4278C16.1417 27.606 16.3608 27.7294 16.6011 27.782C16.6502 27.7916 16.6969 27.8108 16.7385 27.8384C16.7802 27.8661 16.8159 27.9016 16.8438 27.9432C16.8716 27.9847 16.8911 28.0313 16.9009 28.0804C16.9107 28.1294 16.9109 28.1799 16.9011 28.2289C16.8838 28.3152 16.837 28.3929 16.7688 28.4485C16.7006 28.5042 16.6151 28.5343 16.5271 28.534ZM18.2151 27.902C18.1353 27.902 18.0577 27.8768 17.9932 27.83C17.9527 27.8008 17.9183 27.7639 17.8921 27.7215C17.8659 27.679 17.8485 27.6318 17.8406 27.5826C17.8327 27.5333 17.8346 27.4831 17.8462 27.4346C17.8578 27.3861 17.8787 27.3403 17.908 27.3C18.0957 27.0221 18.1938 26.6933 18.189 26.358C18.1923 26.134 18.195 25.91 18.197 25.686C18.1976 25.5858 18.2378 25.4899 18.3088 25.4192C18.3799 25.3486 18.476 25.309 18.5762 25.309C18.6768 25.3098 18.7728 25.3504 18.8435 25.422C18.9142 25.4937 18.9537 25.5904 18.9531 25.691C18.9531 25.917 18.9504 26.1434 18.9451 26.37C18.9475 26.8606 18.7994 27.34 18.521 27.7439C18.4862 27.7924 18.4405 27.8321 18.3875 27.8596C18.3344 27.887 18.2758 27.9016 18.2161 27.902H18.2151ZM15.2151 25.341C15.1652 25.3405 15.1159 25.3301 15.0701 25.3105C15.0242 25.2909 14.9826 25.2625 14.9478 25.2269C14.9129 25.1912 14.8857 25.1489 14.8672 25.1026C14.8487 25.0563 14.8394 25.0068 14.8401 24.957V24.933C14.8401 24.728 14.8401 24.5219 14.8401 24.3169V24.138C14.8401 24.044 14.84 23.95 14.845 23.855C14.85 23.76 14.845 23.682 14.845 23.596C14.8487 23.4453 14.8349 23.2946 14.804 23.147C14.7808 23.049 14.7977 22.9458 14.8506 22.8602C14.9035 22.7745 14.988 22.7133 15.0859 22.69C15.1839 22.6669 15.2871 22.6835 15.3728 22.7364C15.4585 22.7893 15.5197 22.874 15.543 22.972C15.5875 23.1769 15.608 23.3863 15.604 23.596C15.604 23.688 15.6041 23.7809 15.5991 23.8749C15.5941 23.9689 15.5991 24.05 15.5991 24.138V24.3169C15.5991 24.5249 15.5991 24.733 15.5991 24.941V24.965C15.5978 25.0653 15.5569 25.1609 15.4854 25.2311C15.4138 25.3014 15.3173 25.3406 15.217 25.34L15.2151 25.341ZM14.28 21.841C14.1851 21.8409 14.0936 21.8051 14.0237 21.7409C13.9537 21.6767 13.9103 21.5886 13.9021 21.4939C13.8941 21.4009 13.8902 21.312 13.8892 21.231C13.8838 20.6737 13.8784 20.1167 13.873 19.56C13.8725 19.5101 13.8818 19.4606 13.9004 19.4144C13.919 19.3681 13.9468 19.326 13.9817 19.2905C14.0166 19.2549 14.0581 19.2266 14.104 19.2071C14.1499 19.1876 14.1992 19.1773 14.249 19.1769C14.3491 19.1769 14.4452 19.2165 14.5164 19.2869C14.5875 19.3573 14.6281 19.4529 14.6292 19.553C14.6338 20.109 14.639 20.6653 14.645 21.222C14.645 21.285 14.645 21.356 14.655 21.428C14.6636 21.5284 14.632 21.6281 14.5671 21.7051C14.5023 21.7822 14.4095 21.8304 14.3091 21.839L14.28 21.841ZM14.241 18.0309C14.1405 18.0309 14.0444 17.9912 13.9731 17.9203C13.9019 17.8495 13.8616 17.7534 13.8611 17.653C13.8611 17.421 13.8611 17.1876 13.8611 16.9529C13.8611 16.5483 13.8611 16.144 13.8611 15.74C13.8616 15.6399 13.9016 15.544 13.9727 15.4733C14.0437 15.4027 14.1398 15.363 14.24 15.363C14.3406 15.3638 14.4369 15.4044 14.5076 15.476C14.5782 15.5476 14.6175 15.6444 14.6169 15.745C14.6169 16.145 14.6169 16.5476 14.6169 16.9529C14.6169 17.1843 14.6169 17.4154 14.6169 17.646C14.6172 17.7467 14.5777 17.8432 14.5068 17.9146C14.436 17.986 14.3396 18.0265 14.239 18.027L14.241 18.0309ZM14.269 14.22H14.26C14.2101 14.219 14.161 14.2081 14.1152 14.1879C14.0695 14.1678 14.0281 14.1387 13.9937 14.1026C13.9592 14.0664 13.9323 14.0238 13.9143 13.9772C13.8964 13.9306 13.8878 13.8809 13.8892 13.831C13.8996 13.1462 14.0395 12.4696 14.302 11.837C14.3216 11.7909 14.3502 11.7493 14.386 11.7143C14.4218 11.6793 14.464 11.6517 14.5105 11.6331C14.557 11.6145 14.6067 11.6053 14.6567 11.606C14.7068 11.6067 14.7561 11.6172 14.802 11.637C14.848 11.6566 14.8898 11.6851 14.9248 11.7209C14.9598 11.7567 14.9873 11.7989 15.0059 11.8454C15.0244 11.8918 15.0336 11.9416 15.033 11.9916C15.0323 12.0417 15.0218 12.0911 15.002 12.137C14.7768 12.6815 14.6572 13.2638 14.6492 13.853C14.6461 13.9513 14.6049 14.0446 14.5344 14.1132C14.4639 14.1818 14.3694 14.2205 14.271 14.221L14.269 14.22Z" fill="white"/>
<path d="M15.7351 10.8C15.6846 10.8 15.6347 10.79 15.5882 10.7704C15.5416 10.7508 15.4994 10.7221 15.4641 10.6859C15.3938 10.6139 15.3549 10.5169 15.356 10.4162C15.3571 10.3155 15.3981 10.2194 15.47 10.149C15.711 9.91434 15.9699 9.69868 16.2442 9.50394C16.2848 9.47498 16.3308 9.45435 16.3794 9.44315C16.4281 9.43195 16.4784 9.43049 16.5276 9.43876C16.5768 9.44702 16.6237 9.4649 16.666 9.49137C16.7083 9.51784 16.7452 9.55229 16.7742 9.59293C16.8032 9.63358 16.8238 9.67955 16.835 9.72819C16.8462 9.77682 16.8476 9.82716 16.8394 9.87638C16.8311 9.9256 16.8131 9.97275 16.7866 10.0151C16.7602 10.0574 16.7257 10.094 16.6851 10.123C16.443 10.2946 16.2145 10.4848 16.002 10.6919C15.9306 10.7616 15.8349 10.8004 15.7351 10.8Z" fill="white"/>
<path d="M16.0742 8.77397C16.0244 8.77402 15.9749 8.76421 15.9289 8.74516C15.8829 8.72611 15.8413 8.69812 15.8061 8.66288C15.5679 8.42704 15.3474 8.17407 15.1462 7.90592C15.1164 7.86596 15.0947 7.82047 15.0825 7.77213C15.0703 7.7238 15.0677 7.67363 15.0749 7.62431C15.0822 7.57498 15.0991 7.52756 15.1247 7.48478C15.1503 7.442 15.1841 7.40462 15.2241 7.37492C15.2641 7.34511 15.3096 7.32353 15.3579 7.31132C15.4062 7.2991 15.4565 7.29651 15.5058 7.30375C15.5552 7.311 15.6025 7.32796 15.6452 7.35356C15.688 7.37915 15.7254 7.41288 15.7551 7.45292C15.9343 7.69114 16.1304 7.91603 16.342 8.12589C16.3774 8.16111 16.4054 8.20299 16.4245 8.24906C16.4437 8.29514 16.4536 8.34456 16.4536 8.39445C16.4536 8.44434 16.4437 8.49376 16.4245 8.53983C16.4054 8.58591 16.3774 8.62767 16.342 8.66288C16.3068 8.69807 16.2652 8.72599 16.2192 8.74503C16.1732 8.76408 16.124 8.77397 16.0742 8.77397Z" fill="white"/>
<path d="M14.6621 6.42796C14.577 6.42792 14.4944 6.39925 14.4275 6.34666C14.3606 6.29408 14.3131 6.2206 14.293 6.13792C14.2111 5.80003 14.17 5.4536 14.1702 5.10594C14.1707 4.79029 14.2022 4.47551 14.2642 4.166C14.2737 4.11691 14.2929 4.07009 14.3206 4.02843C14.3482 3.98676 14.3838 3.95095 14.4253 3.92308C14.4668 3.89521 14.5135 3.87589 14.5625 3.86607C14.6115 3.85626 14.6619 3.85621 14.7109 3.86595C14.76 3.87541 14.8067 3.89442 14.8484 3.92198C14.89 3.94955 14.926 3.98515 14.9539 4.0266C14.9817 4.06804 15.0012 4.11458 15.011 4.16356C15.0208 4.21253 15.0207 4.263 15.011 4.312C14.9587 4.57278 14.9321 4.83802 14.9312 5.10399C14.9305 5.39128 14.964 5.67753 15.031 5.95689C15.0548 6.05475 15.0389 6.15806 14.9866 6.24412C14.9343 6.33019 14.8498 6.39209 14.752 6.416C14.7225 6.42358 14.6925 6.42757 14.6621 6.42796ZM23.8459 6.20689C23.8238 6.20684 23.8018 6.20485 23.78 6.20091C23.731 6.19233 23.6841 6.17415 23.6421 6.14744C23.6001 6.12073 23.5638 6.08604 23.5352 6.04527C23.5066 6.0045 23.4862 5.95851 23.4753 5.9099C23.4645 5.86128 23.4633 5.811 23.4719 5.76195C23.5087 5.5506 23.5272 5.33645 23.5271 5.12193C23.5256 4.78093 23.4821 4.44141 23.3979 4.11095C23.3737 4.01336 23.3892 3.91018 23.4409 3.82396C23.4927 3.73774 23.5766 3.67554 23.6741 3.65098C23.7718 3.62647 23.8752 3.64171 23.9617 3.69346C24.0481 3.74522 24.1105 3.82926 24.135 3.92699C24.2343 4.31929 24.2852 4.72226 24.2861 5.12694C24.2863 5.38502 24.264 5.64266 24.22 5.89696C24.2036 5.98433 24.1571 6.06322 24.0886 6.11986C24.0201 6.1765 23.9339 6.20724 23.845 6.20689H23.8459ZM15.3071 2.9359C15.2362 2.93507 15.1666 2.91434 15.1069 2.87596C15.0222 2.82144 14.9628 2.73552 14.9414 2.63707C14.92 2.53862 14.9387 2.43568 14.9932 2.35094C15.3493 1.79716 15.8088 1.31742 16.3469 0.937972C16.4291 0.879905 16.531 0.85677 16.6301 0.873641C16.7293 0.890511 16.8177 0.945977 16.876 1.02794C16.9339 1.11019 16.957 1.21209 16.9399 1.31126C16.9229 1.41043 16.8673 1.49883 16.7852 1.55699C16.3271 1.87925 15.9352 2.28661 15.6311 2.75694C15.5968 2.81213 15.5489 2.85755 15.4919 2.8889C15.435 2.92025 15.3711 2.93642 15.3062 2.9359H15.3071ZM23.0071 2.75194C22.9464 2.75205 22.8865 2.73754 22.8325 2.7097C22.7786 2.68186 22.7321 2.64145 22.697 2.5919C22.374 2.13363 21.9668 1.74101 21.4971 1.43492C21.4552 1.40786 21.4189 1.37283 21.3906 1.33177C21.3623 1.29071 21.3424 1.24443 21.332 1.19566C21.3216 1.14689 21.321 1.09663 21.3301 1.04759C21.3392 0.998557 21.3578 0.951698 21.385 0.909896C21.4121 0.86801 21.4472 0.831881 21.4883 0.803572C21.5293 0.775264 21.5755 0.755383 21.6243 0.744979C21.673 0.734574 21.7234 0.733936 21.7725 0.743026C21.8215 0.752115 21.8684 0.770763 21.9102 0.797957C22.4617 1.15591 22.9399 1.61578 23.3191 2.15294C23.348 2.19356 23.3685 2.23948 23.3796 2.28807C23.3907 2.33666 23.3921 2.387 23.3838 2.43614C23.3754 2.48528 23.3574 2.53226 23.3308 2.57445C23.3043 2.61663 23.2697 2.6532 23.229 2.68199C23.165 2.7272 23.0884 2.75129 23.01 2.75096L23.0071 2.75194ZM18.207 0.880965C18.1215 0.880939 18.0384 0.852009 17.9714 0.798812C17.9044 0.745615 17.8575 0.671312 17.8381 0.587996C17.8265 0.539469 17.8246 0.489064 17.8325 0.439803C17.8404 0.390542 17.8578 0.343346 17.884 0.300887C17.9102 0.258428 17.9446 0.221529 17.9851 0.192366C18.0256 0.163204 18.0715 0.14237 18.1201 0.130965C18.5365 0.031778 18.9642 -0.0116305 19.3921 0.00193674C19.6242 0.00899956 19.8554 0.0330855 20.084 0.0739582C20.183 0.0917492 20.2708 0.147978 20.3284 0.230452C20.3859 0.312927 20.4086 0.414862 20.3911 0.5139C20.3733 0.613085 20.3168 0.701201 20.2341 0.758773C20.1514 0.816344 20.0491 0.838663 19.95 0.820906C19.7577 0.786761 19.5634 0.766771 19.3682 0.76097C19.0069 0.749359 18.6455 0.786024 18.2939 0.869979C18.2667 0.876339 18.2389 0.879702 18.2109 0.879988L18.207 0.880965Z" fill="white"/>
<path d="M22.5532 8.62293C22.4552 8.62333 22.3608 8.5857 22.29 8.51795C22.2539 8.48353 22.225 8.44226 22.2048 8.39661C22.1846 8.35096 22.1737 8.30185 22.1726 8.25196C22.1715 8.20206 22.1801 8.15234 22.1982 8.10584C22.2163 8.05933 22.2435 8.01695 22.278 7.98096C22.4827 7.76841 22.6692 7.53889 22.8352 7.29492C22.8919 7.21193 22.9791 7.15485 23.0779 7.13611C23.1766 7.11737 23.2788 7.13851 23.362 7.19495C23.445 7.25169 23.5022 7.33897 23.521 7.43775C23.5397 7.53652 23.5186 7.63872 23.4621 7.72193C23.2719 8.00136 23.0585 8.2643 22.8242 8.50794C22.789 8.54421 22.7467 8.57303 22.7002 8.59278C22.6536 8.61253 22.6038 8.6228 22.5532 8.62293Z" fill="white"/>
</svg>
