<svg width="42" height="26" viewBox="0 0 42 26" fill="none" xmlns="http://www.w3.org/2000/svg">
<path d="M26.013 19.03C22.104 19.03 18.1949 19.002 14.2869 19.048C13.1869 19.061 12.6699 18.782 12.7669 17.577C12.8639 16.372 12.7851 15.168 12.7891 13.963C12.7941 12.377 13.1121 12.109 14.6531 12.025C20.8807 11.7332 27.118 12.3367 33.1741 13.817C34.7881 14.196 36.426 14.481 38.062 14.753C38.2469 14.7525 38.4296 14.793 38.597 14.8716C38.7643 14.9502 38.9119 15.0649 39.0296 15.2075C39.1472 15.3501 39.2318 15.5171 39.2771 15.6963C39.3225 15.8755 39.3277 16.0626 39.292 16.244C39.199 19.388 39.708 19.013 36.492 19.028C32.999 19.043 29.506 19.03 26.013 19.03Z" fill="white"/>
<path opacity="0.6" d="M35.7271 23.04H5.92707C5.42007 23.94 6.505 25.57 4.534 25.622C2.427 25.678 3.65708 23.878 3.04108 23.034C2.80108 23.015 2.51793 22.979 2.23493 22.973C0.563927 22.937 0.596042 22.915 0.553042 21.302C0.524042 20.226 0.98594 19.966 1.97394 19.968C14.5353 19.99 27.0967 19.9883 39.658 19.963C40.83 19.963 41.0291 20.479 41.0311 21.481C41.0331 22.483 40.839 23.118 39.661 22.981C39.2948 22.9567 38.9276 22.9543 38.5611 22.974C37.9211 23.862 39.1251 25.874 36.8611 25.617C35.9441 25.51 35.9341 25.505 35.7271 23.04Z" fill="white"/>
<path d="M6.04705 12.784C6.03572 12.4094 6.10015 12.0364 6.2365 11.6873C6.37285 11.3383 6.57828 11.0203 6.84051 10.7526C7.10273 10.4849 7.41621 10.2728 7.76238 10.1292C8.10855 9.98566 8.48017 9.91348 8.85491 9.91702C9.24014 9.906 9.62362 9.97326 9.98211 10.1147C10.3406 10.2562 10.6667 10.4689 10.9406 10.74C11.2145 11.0111 11.4307 11.3349 11.5759 11.6919C11.721 12.0489 11.7921 12.4317 11.7851 12.817C11.7569 13.5728 11.4409 14.2894 10.9018 14.82C10.3627 15.3505 9.64115 15.6549 8.88494 15.671C8.12737 15.6594 7.40485 15.35 6.87371 14.8097C6.34257 14.2694 6.04565 13.5417 6.04705 12.784Z" fill="white"/>
<path d="M7.05003 16.451C8.17303 16.451 9.29498 16.457 10.417 16.451C11.271 16.445 11.7581 16.837 11.7781 17.706C11.8051 17.8831 11.7904 18.064 11.7353 18.2344C11.6803 18.4049 11.5864 18.5602 11.4609 18.688C11.3354 18.8158 11.1818 18.9126 11.0124 18.9708C10.843 19.0289 10.6624 19.0468 10.4848 19.023C8.11551 19.0303 5.74596 19.0303 3.37596 19.023C3.19841 19.0472 3.01756 19.0299 2.84788 18.9722C2.67821 18.9146 2.52425 18.8183 2.39818 18.691C2.2721 18.5636 2.1775 18.4087 2.12157 18.2385C2.06563 18.0682 2.04993 17.8873 2.07591 17.71C2.09191 16.839 2.57589 16.446 3.43089 16.451C4.63789 16.456 5.84403 16.451 7.05003 16.451Z" fill="white"/>
<g opacity="0.6">
<g opacity="0.6">
<path opacity="0.6" d="M12.171 7.05598L13.7291 5.02803C13.8861 4.83603 14.0209 4.67201 14.1849 4.48701V4.47304H12.3131V3.97304H14.9391V4.36403L13.3951 6.37202C13.2531 6.55702 13.11 6.73502 12.954 6.90602V6.92H14.9681V7.42H12.1681L12.171 7.05598Z" fill="white"/>
<path opacity="0.6" d="M15.0919 7.54402H12.045V7.01302L13.629 4.951C13.729 4.833 13.82 4.717 13.922 4.597H12.1859V3.84901H15.0621V4.40804L13.4921 6.44899C13.4101 6.55499 13.318 6.673 13.215 6.795H15.0909L15.0919 7.54402ZM12.2921 7.29402H14.839V7.045H12.8251V6.85701L12.858 6.821C13.025 6.639 13.1711 6.45304 13.2921 6.29604L14.8109 4.32204V4.09499H12.4349V4.34303H14.307V4.52901L14.276 4.56398C14.108 4.75398 13.9661 4.92603 13.8241 5.10103L12.2941 7.09303L12.2921 7.29402Z" fill="white"/>
</g>
<g opacity="0.6">
<path opacity="0.6" d="M16.5179 4.58998L17.5919 3.19002C17.6999 3.05702 17.7921 2.94403 17.9061 2.81703V2.80702H16.6171V2.464H18.4261V2.73299L17.3619 4.11598C17.2619 4.24298 17.1621 4.36602 17.0621 4.48402V4.49403H18.4491V4.83699H16.5221L16.5179 4.58998Z" fill="white"/>
<path opacity="0.6" d="M18.569 4.96498H16.392V4.54799L17.4921 3.11702L17.641 2.93599H16.4911V2.34303H18.5499V2.77998L17.4601 4.19704C17.4181 4.25204 17.3709 4.311 17.3209 4.373H18.569V4.96498ZM16.642 4.71498H18.319V4.62202H16.931V4.43898L16.964 4.40303C17.077 4.27903 17.178 4.15202 17.264 4.04402L18.3021 2.69502V2.59499H16.743V2.688H18.0321V2.87001L18.0011 2.90498C17.8921 3.02898 17.801 3.136 17.691 3.274L16.6451 4.63503L16.642 4.71498Z" fill="white"/>
</g>
<g opacity="0.6">
<path opacity="0.6" d="M19.817 2.53101L20.5909 1.52301C20.6689 1.42301 20.736 1.34603 20.817 1.25403V1.24701H19.8871V0.999023H21.1871V1.19299L20.42 2.19299C20.349 2.28499 20.278 2.37301 20.201 2.45801V2.46503H21.201V2.71204H19.817V2.53101Z" fill="white"/>
<path opacity="0.6" d="M21.33 2.836H19.691V2.48804L20.4911 1.44702L20.5521 1.37201H19.7621V0.872009H21.316V1.23401L20.5231 2.26501L20.4679 2.336H21.33V2.836ZM19.941 2.586H20.08V2.40802L20.1129 2.37201C20.1779 2.30101 20.2441 2.22099 20.3251 2.11499L21.066 1.151V1.12299H20.941V1.29999L20.91 1.336C20.832 1.424 20.7691 1.50101 20.6871 1.60101L19.941 2.57202V2.586Z" fill="white"/>
</g>
</g>
</svg>
