<svg width="33" height="32" viewBox="0 0 33 32" fill="none" xmlns="http://www.w3.org/2000/svg">
<path d="M12.59 9.20002L16.874 14.2C17.998 13.573 19.0629 12.9 20.1979 12.38C20.7931 12.0828 21.4628 11.9681 22.123 12.05C24.439 12.52 26.7319 13.1089 29.0229 13.6929C29.5072 13.81 29.9408 14.0808 30.2582 14.4648C30.5757 14.8488 30.76 15.3253 30.7839 15.8229C30.807 16.2897 30.676 16.751 30.4108 17.1358C30.1457 17.5206 29.7614 17.8074 29.3171 17.952C28.7566 18.0918 28.1712 18.1004 27.6069 17.977C25.9829 17.641 24.371 17.243 22.769 16.816C22.4659 16.7235 22.1465 16.6975 21.8325 16.7396C21.5184 16.7817 21.2169 16.891 20.9489 17.06C19.2219 18.066 17.457 19.008 15.706 19.973C15.2402 20.3165 14.6611 20.4697 14.0864 20.4016C13.5117 20.3334 12.9845 20.0489 12.612 19.606C10.3707 17.632 8.12369 15.6653 5.87103 13.706C5.50831 13.4265 5.2181 13.0639 5.02483 12.6488C4.83157 12.2336 4.74082 11.7781 4.76043 11.3206C4.78004 10.8631 4.90931 10.417 5.13738 10.02C5.36546 9.62289 5.68567 9.28646 6.07098 9.03901C7.75398 7.84701 9.50307 6.74801 11.1711 5.53901C11.7432 5.09605 12.2346 4.55779 12.624 3.94795C13.171 3.13395 13.581 2.22896 14.08 1.37996C14.1873 1.15637 14.3376 0.956215 14.5226 0.791089C14.7076 0.625963 14.9236 0.499177 15.1579 0.41792C15.3922 0.336663 15.6401 0.302583 15.8876 0.3177C16.1351 0.332817 16.3774 0.396768 16.6 0.505933C16.827 0.623203 17.028 0.78471 17.1916 0.980908C17.3552 1.17711 17.4779 1.40406 17.5524 1.64839C17.627 1.89272 17.6519 2.14954 17.6257 2.40364C17.5995 2.65774 17.5229 2.90402 17.4001 3.128C16.6911 4.528 15.9131 5.88997 15.1291 7.24897C14.9341 7.52452 14.6867 7.75904 14.4011 7.93904C13.8381 8.35004 13.25 8.73802 12.59 9.20002Z" fill="white"/>
<path d="M16.5149 21.5279C17.7889 20.8279 18.968 20.1689 20.157 19.5279C20.296 19.4529 20.5949 19.408 20.6479 19.479C21.4769 20.579 22.9241 21.37 22.6941 23.015C22.3761 25.293 21.9791 27.5629 21.5281 29.8149C21.4022 30.3632 21.0667 30.8404 20.5935 31.1446C20.1204 31.4489 19.5471 31.556 18.9961 31.443C18.4251 31.3611 17.9093 31.0572 17.561 30.5974C17.2128 30.1375 17.0601 29.5587 17.136 28.9869C17.2613 27.6417 17.4798 26.3068 17.79 24.9919C17.9723 24.4897 17.9933 23.943 17.8499 23.4283C17.7064 22.9136 17.4058 22.4566 16.99 22.1209C16.8163 21.9361 16.6573 21.7378 16.5149 21.5279Z" fill="white"/>
<path d="M4.55597 3.09033e-05C5.07883 0.00337638 5.59585 0.110489 6.07697 0.315216C6.55809 0.519944 6.99376 0.818222 7.35871 1.19266C7.72366 1.56709 8.01063 2.01028 8.20295 2.49649C8.39526 2.98271 8.48914 3.50229 8.47907 4.02506C8.46255 5.06446 8.03823 6.05566 7.29767 6.78519C6.55711 7.51471 5.55962 7.92404 4.52009 7.92496C3.99713 7.92589 3.47904 7.82338 2.99592 7.6232C2.51279 7.42302 2.07419 7.12911 1.70514 6.75858C1.3361 6.38805 1.04401 5.94819 0.84577 5.46426C0.647532 4.98033 0.54708 4.46195 0.550116 3.939C0.551518 3.41645 0.656549 2.8994 0.859198 2.41776C1.06185 1.93611 1.35794 1.49945 1.73054 1.13309C2.10313 0.766723 2.54486 0.477975 3.02985 0.283478C3.51485 0.088981 4.03348 -0.00737918 4.55597 3.09033e-05Z" fill="white"/>
<path d="M31.8979 4.00097C31.4979 3.87097 31.258 3.80697 31.032 3.71997C29.441 3.09332 27.7283 2.83612 26.0234 2.96777C24.3185 3.09942 22.6659 3.6165 21.1899 4.47998C20.8553 4.65988 20.4682 4.71686 20.0959 4.64099C19.9538 4.57203 19.8319 4.46743 19.7422 4.3374C19.6525 4.20737 19.598 4.0564 19.584 3.89904C19.6627 3.49734 19.8902 3.14018 20.2209 2.89904C22.3865 1.51619 24.943 0.874932 27.5049 1.07202C29.0171 1.27063 30.5064 1.61561 31.9519 2.10205C32.1339 2.21007 32.2872 2.36047 32.3984 2.54052C32.5097 2.72058 32.5759 2.92487 32.5911 3.13598C32.5951 3.42898 32.1319 3.72897 31.8979 4.00097Z" fill="white"/>
<path d="M31.837 6.34094C32.422 6.55494 32.902 6.91295 32.569 7.65295C32.261 8.33795 31.736 8.34699 31.108 8.09399C29.5125 7.43327 27.7843 7.15563 26.0621 7.28345C24.3399 7.41126 22.6716 7.94094 21.191 8.82996C20.606 9.15296 20.0311 9.24489 19.6671 8.61389C19.3031 7.98289 19.644 7.52194 20.234 7.18494C22.291 5.99817 24.6203 5.3646 26.995 5.34595C28.6391 5.50865 30.2619 5.84211 31.837 6.34094Z" fill="white"/>
</svg>
