<svg width="48" height="48" viewBox="0 0 48 48" fill="none" xmlns="http://www.w3.org/2000/svg">
<g clip-path="url(#clip0_3_1056)">
<path opacity="0.75" d="M23.9298 47.858C20.7859 47.8667 17.6714 47.2521 14.7667 46.0492C11.862 44.8462 9.22509 43.0791 7.00791 40.8502C4.77879 38.6332 3.01163 35.9958 1.80869 33.0912C0.605757 30.1865 -0.00886414 27.072 9.73124e-05 23.9281C-0.0088975 20.7843 0.605751 17.67 1.80869 14.7655C3.01163 11.8609 4.77877 9.224 7.00791 7.00718C9.22509 4.77823 11.862 3.01112 14.7667 1.8082C17.6714 0.60528 20.7859 -0.00962056 23.9298 -0.000880018C27.0735 -0.00984009 30.1884 0.604956 33.0929 1.80771C35.9974 3.01047 38.6337 4.77738 40.8507 7.0062C43.0795 9.22321 44.8471 11.8602 46.0499 14.7647C47.2527 17.6692 47.8675 20.7834 47.8585 23.9271C47.8674 27.0709 47.2527 30.1853 46.0499 33.0899C44.8472 35.9946 43.0795 38.632 40.8507 40.8492C38.6338 43.0784 35.9974 44.8456 33.0929 46.0487C30.1884 47.2518 27.0736 47.8667 23.9298 47.858ZM27.7765 10.806C27.6928 10.8055 27.6098 10.8216 27.5323 10.8531C27.4548 10.8847 27.3838 10.9311 27.3243 10.9898C27.2648 11.0486 27.2172 11.1186 27.1847 11.1957C27.1522 11.2727 27.1354 11.3554 27.1349 11.4391V35.4952C27.1354 35.5789 27.1522 35.6615 27.1847 35.7386C27.2172 35.8157 27.2648 35.8857 27.3243 35.9444C27.3838 36.0032 27.4548 36.0496 27.5323 36.0812C27.6098 36.1127 27.6928 36.1286 27.7765 36.128H32.8263C32.9953 36.1291 33.1581 36.0631 33.2784 35.9444C33.3988 35.8257 33.4666 35.6642 33.4679 35.4952V11.4391C33.4666 11.27 33.3988 11.1085 33.2784 10.9898C33.1581 10.8712 32.9953 10.8049 32.8263 10.806H27.7765ZM13.8507 10.806C13.6814 10.8047 13.5193 10.8707 13.3985 10.9894C13.2778 11.108 13.2087 11.2698 13.2071 11.4391V35.4952C13.2087 35.6645 13.2778 35.8262 13.3985 35.9449C13.5193 36.0636 13.6814 36.1294 13.8507 36.128H18.8995C18.9832 36.1286 19.0662 36.1127 19.1437 36.0812C19.2211 36.0496 19.2912 36.0032 19.3507 35.9444C19.4102 35.8857 19.4578 35.8157 19.4903 35.7386C19.5228 35.6615 19.5396 35.5789 19.5401 35.4952V11.4391C19.5396 11.3554 19.5228 11.2727 19.4903 11.1957C19.4578 11.1186 19.4102 11.0486 19.3507 10.9898C19.2912 10.9311 19.2211 10.8847 19.1437 10.8531C19.0662 10.8216 18.9832 10.8055 18.8995 10.806H13.8507Z" fill="#FAFAFA"/>
</g>
<defs>
<clipPath id="clip0_3_1056">
<rect width="47.857" height="47.858" fill="white"/>
</clipPath>
</defs>
</svg>
