<svg width="34" height="34" viewBox="0 0 34 34" fill="none" xmlns="http://www.w3.org/2000/svg">
<g filter="url(#filter0_b_3_414)">
<circle cx="16.665" cy="16.665" r="16.665" fill="white" fill-opacity="0.5"/>
</g>
<path d="M17.106 8C18.177 8.4 19.2502 8.79995 20.3242 9.19995C21.6132 9.67395 22.9013 10.148 24.1963 10.606C24.3351 10.6445 24.4576 10.7268 24.5459 10.8407C24.6342 10.9546 24.6833 11.094 24.686 11.238C24.9502 13.4658 24.8755 15.7206 24.4648 17.926C24.079 20.2416 22.9127 22.3553 21.1592 23.916C20.0943 24.8378 18.8016 25.4573 17.416 25.71C16.515 25.811 15.6046 25.6393 14.8022 25.217C13.6177 24.699 12.5594 23.93 11.7012 22.9631C10.8429 21.9963 10.2049 20.8545 9.83105 19.6169C9.37618 18.2772 9.1144 16.8795 9.05322 15.4659C9.04272 15.3556 9.02479 15.246 9 15.1379V12.96C9.045 12.441 9.11725 11.9241 9.13525 11.4041C9.12404 11.2111 9.18074 11.0203 9.2959 10.8651C9.41106 10.7099 9.57724 10.6002 9.76514 10.5551C11.0231 10.1201 12.2729 9.65495 13.5229 9.19995C14.5929 8.80695 15.662 8.4 16.73 8H17.106ZM23.7402 14.051C23.7042 13.327 23.6583 12.603 23.6343 11.879C23.6433 11.7872 23.6184 11.6952 23.5649 11.62C23.5115 11.5448 23.433 11.4915 23.3433 11.47C21.2993 10.738 19.2608 9.99101 17.2158 9.26501C17.0209 9.20105 16.8111 9.20105 16.6162 9.26501C14.5812 9.98801 12.5549 10.732 10.5239 11.465C10.4278 11.4833 10.3419 11.5363 10.2822 11.6139C10.2225 11.6915 10.1933 11.7883 10.2002 11.886C10.1832 12.874 10.1139 13.861 10.1299 14.848C10.1337 16.4527 10.4219 18.0439 10.981 19.548C11.3604 20.7125 12.0155 21.7682 12.8901 22.6256C13.7648 23.483 14.8331 24.1168 16.0049 24.473C16.3909 24.6112 16.8039 24.6574 17.2109 24.608C18.432 24.3695 19.5724 23.8241 20.5244 23.0232C21.4765 22.2223 22.2088 21.1922 22.6528 20.03C23.4293 18.135 23.8001 16.0981 23.7402 14.051Z" fill="white"/>
<path d="M19.2061 15.4909C19.9981 15.5409 20.2608 15.8229 20.2608 16.5639C20.2608 17.5399 20.2608 18.5163 20.2608 19.493C20.2608 20.175 19.9606 20.483 19.2876 20.486C17.6976 20.4914 16.109 20.4914 14.521 20.486C14.3926 20.5028 14.2617 20.4896 14.1392 20.4475C14.0167 20.4053 13.9059 20.3354 13.815 20.2432C13.724 20.151 13.6557 20.039 13.6153 19.916C13.5749 19.7929 13.5635 19.6622 13.5821 19.534C13.5771 18.583 13.5821 17.634 13.5821 16.68C13.5821 15.814 13.7688 15.5909 14.6368 15.4699C14.6368 14.9769 14.6368 14.48 14.6368 13.982C14.6162 13.7371 14.6501 13.4907 14.7354 13.2602C14.8207 13.0297 14.9554 12.8209 15.1304 12.6484C15.3054 12.4759 15.516 12.344 15.7476 12.262C15.9793 12.18 16.2262 12.15 16.4708 12.174C16.8098 12.174 17.1479 12.174 17.4839 12.174C17.7101 12.1651 17.9354 12.2025 18.1465 12.284C18.3576 12.3655 18.5501 12.4894 18.7115 12.648C18.8729 12.8066 18.9998 12.9966 19.085 13.2062C19.1702 13.4159 19.212 13.6408 19.2071 13.867C19.2171 14.4 19.2061 14.9369 19.2061 15.4909ZM15.7579 15.4799H18.0821V15.118C18.0821 14.694 18.0881 14.2689 18.0821 13.8439C18.089 13.7684 18.0793 13.6923 18.0538 13.6209C18.0282 13.5495 17.9873 13.4844 17.9341 13.4304C17.8809 13.3763 17.8167 13.3345 17.7457 13.3078C17.6746 13.2811 17.5986 13.2703 17.523 13.2759C17.123 13.2579 16.7228 13.2579 16.3228 13.2759C16.2471 13.2704 16.1711 13.2814 16.1001 13.3082C16.0292 13.335 15.9653 13.3769 15.9122 13.4311C15.859 13.4853 15.8179 13.5503 15.7925 13.6218C15.7671 13.6932 15.7577 13.7694 15.7647 13.8449C15.7517 14.3809 15.7579 14.9169 15.7579 15.4799ZM16.5718 18.5939C16.5718 18.7559 16.5808 18.919 16.5718 19.081C16.5558 19.335 16.693 19.397 16.918 19.404C17.202 19.413 17.2769 19.2799 17.2759 19.0159C17.182 18.5037 17.2816 17.9748 17.5557 17.5319C17.7647 17.2659 17.5817 16.9539 17.3277 16.7499C17.2017 16.6549 17.0469 16.6067 16.8892 16.6136C16.7315 16.6205 16.5811 16.6821 16.4639 16.7879C16.3999 16.8339 16.3453 16.8921 16.3038 16.9592C16.2622 17.0262 16.2345 17.1007 16.2217 17.1785C16.209 17.2564 16.2115 17.336 16.2295 17.4128C16.2476 17.4896 16.2806 17.5619 16.3267 17.6259C16.4339 17.7606 16.5115 17.9167 16.5538 18.0836C16.596 18.2505 16.602 18.4244 16.5718 18.5939Z" fill="white"/>
<defs>
<filter id="filter0_b_3_414" x="-10" y="-10" width="53.33" height="53.33" filterUnits="userSpaceOnUse" color-interpolation-filters="sRGB">
<feFlood flood-opacity="0" result="BackgroundImageFix"/>
<feGaussianBlur in="BackgroundImage" stdDeviation="5"/>
<feComposite in2="SourceAlpha" operator="in" result="effect1_backgroundBlur_3_414"/>
<feBlend mode="normal" in="SourceGraphic" in2="effect1_backgroundBlur_3_414" result="shape"/>
</filter>
</defs>
</svg>
