<svg width="17" height="20" viewBox="0 0 17 20" fill="none" xmlns="http://www.w3.org/2000/svg">
<path d="M13.7759 13.714C13.118 13.7177 12.4852 13.9674 12.0019 14.414L5.54894 10.655C5.65773 10.2397 5.65773 9.80333 5.54894 9.388L11.9299 5.671C12.3868 6.09382 12.9754 6.34638 13.5966 6.38621C14.2179 6.42603 14.8339 6.25069 15.341 5.88967C15.8481 5.52865 16.2154 5.00399 16.3812 4.40395C16.5469 3.8039 16.5009 3.16509 16.2509 2.59497C16.001 2.02485 15.5623 1.55822 15.0087 1.27356C14.455 0.988911 13.8203 0.903611 13.2112 1.03201C12.602 1.16041 12.0557 1.49468 11.6641 1.97858C11.2725 2.46248 11.0595 3.06649 11.0609 3.689C11.065 3.90264 11.0922 4.11521 11.1419 4.323L4.76094 8.043C4.37449 7.68122 3.89072 7.44031 3.36914 7.34989C2.84756 7.25948 2.31092 7.32352 1.82526 7.53413C1.3396 7.74473 0.926102 8.09272 0.635641 8.53527C0.34518 8.97783 0.19043 9.49564 0.19043 10.025C0.19043 10.5544 0.34518 11.0722 0.635641 11.5147C0.926102 11.9573 1.3396 12.3053 1.82526 12.5159C2.31092 12.7265 2.84756 12.7905 3.36914 12.7001C3.89072 12.6097 4.37449 12.3688 4.76094 12.007L11.2059 15.771C11.1592 15.9635 11.135 16.1609 11.1339 16.359C11.1339 16.8817 11.2889 17.3927 11.5794 17.8274C11.8698 18.262 12.2826 18.6008 12.7655 18.8008C13.2484 19.0009 13.7799 19.0532 14.2926 18.9512C14.8053 18.8492 15.2762 18.5975 15.6458 18.2279C16.0154 17.8583 16.2672 17.3873 16.3692 16.8746C16.4711 16.3619 16.4188 15.8305 16.2188 15.3476C16.0187 14.8646 15.6799 14.4518 15.2453 14.1614C14.8107 13.871 14.2997 13.716 13.7769 13.716L13.7759 13.714Z" fill="white"/>
</svg>
