<svg width="36" height="36" viewBox="0 0 36 36" fill="none" xmlns="http://www.w3.org/2000/svg">
<path d="M35.327 17.719C35.3261 20.066 34.8563 22.3892 33.9452 24.5522C33.0341 26.7152 31.7 28.6744 30.0213 30.3147C28.3425 31.9549 26.353 33.2432 24.1695 34.104C21.9859 34.9647 19.6524 35.3806 17.306 35.327C12.6794 35.242 8.27174 33.3406 5.03493 30.0337C1.79812 26.7267 -0.00816919 22.2794 0.00600318 17.652C0.00427171 15.3117 0.468195 12.9945 1.37081 10.8353C2.27343 8.67612 3.59668 6.71818 5.26345 5.07542C6.93022 3.43266 8.90719 2.13795 11.0792 1.26676C13.2513 0.39557 15.575 -0.0347355 17.915 0.000952666C22.5707 0.05058 27.0169 1.94298 30.2804 5.26377C33.5438 8.58456 35.3585 13.0632 35.327 17.719ZM29.141 27.036C31.6109 24.0359 32.8007 20.1841 32.4532 16.3137C32.1057 12.4433 30.2488 8.86515 27.284 6.353C21.152 1.124 12.633 2.21997 8.355 6.23997L29.141 27.036ZM6.165 8.36198C3.79112 11.246 2.60272 14.9249 2.84078 18.6527C3.07884 22.3805 4.72553 25.8783 7.44698 28.437C10.042 30.9336 13.4653 32.3877 17.0638 32.5218C20.6623 32.6559 24.1843 31.4606 26.958 29.164L6.165 8.36198Z" fill="white"/>
</svg>
