<svg width="24" height="37" viewBox="0 0 24 37" fill="none" xmlns="http://www.w3.org/2000/svg">
<path d="M7.67196 19.464C8.18196 20.819 8.61597 22.103 9.14797 23.344C9.40094 23.8231 9.48438 24.3737 9.3847 24.9062C9.28502 25.4387 9.00808 25.9219 8.59896 26.277C7.07196 27.837 5.62598 29.477 4.13598 31.077C3.9079 31.3553 3.59921 31.5562 3.25237 31.652C2.90553 31.7478 2.53755 31.7338 2.19897 31.612C1.86984 31.5335 1.57501 31.3505 1.35867 31.0903C1.14232 30.8302 1.01611 30.5069 0.998956 30.169C0.99167 29.6335 1.1518 29.1091 1.45696 28.669C2.47796 27.311 3.58297 26.014 4.67797 24.713C4.81607 24.5823 4.90525 24.4082 4.93072 24.2197C4.95619 24.0312 4.91639 23.8397 4.81796 23.677C4.14496 22.219 3.53098 20.734 2.89398 19.26C2.48745 18.4325 2.29983 17.5146 2.34902 16.5939C2.39822 15.6732 2.68259 14.7805 3.17498 14.001C4.18498 12.334 5.05498 10.582 6.00198 8.87501C6.29511 8.22135 6.75155 7.65416 7.32742 7.22804C7.90328 6.80192 8.57917 6.53121 9.28997 6.44199C10.192 6.3694 11.0907 6.61728 11.828 7.14201C13.097 7.97201 14.338 8.842 15.622 9.65C15.947 9.84016 16.3247 9.92047 16.699 9.87901C18.313 9.66501 19.917 9.37902 21.528 9.13902C21.7208 9.10213 21.9191 9.1043 22.1111 9.14542C22.3031 9.18655 22.485 9.26576 22.6458 9.3784C22.8067 9.49103 22.9432 9.63481 23.0475 9.80119C23.1518 9.96756 23.2217 10.1532 23.253 10.347C23.3122 10.7265 23.2195 11.114 22.9948 11.4255C22.7702 11.7371 22.4317 11.9474 22.053 12.011C20.061 12.456 18.069 12.911 16.065 13.295C15.6396 13.3456 15.2088 13.269 14.827 13.075C13.895 12.636 13.001 12.115 12.012 11.584L9.48498 15.372C10.818 15.644 12.032 15.972 13.268 16.125C13.8768 16.1574 14.457 16.3933 14.9156 16.795C15.3743 17.1967 15.6846 17.7408 15.797 18.34C16.385 20.44 17.105 22.494 17.757 24.572C17.8535 24.8002 17.9019 25.0459 17.8991 25.2936C17.8963 25.5414 17.8424 25.7859 17.7407 26.0118C17.639 26.2378 17.4918 26.4403 17.3083 26.6067C17.1247 26.7732 16.9088 26.8999 16.674 26.979C16.4395 27.059 16.1913 27.0907 15.9443 27.0721C15.6972 27.0535 15.4565 26.9851 15.2367 26.8709C15.0169 26.7566 14.8225 26.599 14.6653 26.4076C14.5081 26.2162 14.3912 25.9948 14.322 25.757C13.656 24.046 13.022 22.325 12.334 20.622C12.2813 20.4939 12.202 20.3784 12.1013 20.2833C12.0006 20.1881 11.8808 20.1154 11.75 20.07C10.447 19.831 9.12796 19.668 7.67196 19.464Z" fill="white"/>
<path d="M18.39 13.695L22.18 12.869V36.033H18.39V13.695Z" fill="white"/>
<path d="M14.8 0.00699964C15.2767 0.0105047 15.7476 0.110983 16.1842 0.302318C16.6208 0.493654 17.0139 0.771839 17.3396 1.11995C17.6653 1.46805 17.9166 1.87879 18.0785 2.32716C18.2403 2.77553 18.3092 3.25216 18.281 3.72801C18.2538 4.19822 18.1336 4.65837 17.9274 5.08183C17.7212 5.50529 17.4331 5.88365 17.0797 6.19502C16.7263 6.50638 16.3146 6.74454 15.8686 6.89576C15.4225 7.04698 14.9509 7.10826 14.481 7.076C14.0095 7.05116 13.5477 6.93213 13.1229 6.72593C12.6981 6.51974 12.3189 6.23056 12.0077 5.87544C11.6965 5.52032 11.4595 5.10648 11.3109 4.65831C11.1622 4.21013 11.1048 3.73672 11.142 3.266C11.2134 2.35573 11.6339 1.5083 12.3157 0.900921C12.9974 0.293539 13.8876 -0.0267634 14.8 0.00699964Z" fill="white"/>
</svg>
